v -1.0331260 -2.2408540 0.7485953
vn 0.0000000 0.8660250 0.5000008
vt 0.3129850 0.4820210
v -1.0331270 -2.1994729 0.5941615
vn 0.0000000 1.0000000 0.0000000
vt 0.2910960 0.4820210
v -1.2288100 -2.1994729 0.5941615
vn 0.0000000 1.0000000 0.0000000
vt 0.2910960 0.4555950
v -1.2288110 -2.2408540 0.7485953
vn 0.0000000 0.8660250 0.5000008
vt 0.3129850 0.4555970
v -1.2288100 -2.3539071 0.8616486
vn 0.0000000 0.5000005 0.8660251
vt 0.3348690 0.4555960
v -1.0331260 -2.3539071 0.8616486
vn 0.0000000 0.5000001 0.8660254
vt 0.3348690 0.4820210
v -1.0331260 -2.5083411 0.9030290
vn 0.0000000 0.0000000 1.0000000
vt 0.2910960 0.4820210
v -1.0331260 -2.3539071 0.8616486
vn 0.0000000 0.5000001 0.8660254
vt 0.2692020 0.4820210
v -1.2288100 -2.3539071 0.8616486
vn 0.0000000 0.5000005 0.8660251
vt 0.2692020 0.4555960
v -1.2288100 -2.5083399 0.9030291
vn 0.0000000 0.0000000 1.0000000
vt 0.2910960 0.4555970
v -1.0331260 -2.6627741 0.8616486
vn 0.0000000 -0.5000005 0.8660251
vt 0.3129850 0.4820210
v -1.2288110 -2.6627741 0.8616486
vn 0.0000000 -0.5000008 0.8660250
vt 0.3129850 0.4555970
v -1.0331270 -2.7758269 0.7485953
vn 0.0000000 -0.8660251 0.5000005
vt 0.3348690 0.4820210
v -1.2288110 -2.7758269 0.7485953
vn 0.0000000 -0.8660251 0.5000005
vt 0.3348690 0.4555990
v -1.0331270 -2.7758269 0.7485953
vn 0.0000000 -0.8660251 0.5000005
vt 0.2692020 0.4820210
v -1.2288110 -2.7758269 0.7485953
vn 0.0000000 -0.8660251 0.5000005
vt 0.2692020 0.4555990
v -1.2288100 -2.8172081 0.5941617
vn 0.0000000 -1.0000000 0.0000000
vt 0.2910960 0.4556000
v -1.0331260 -2.8172081 0.5941617
vn 0.0000000 -1.0000000 0.0000000
vt 0.2910960 0.4820210
v -1.0331260 -2.7758279 0.4397281
vn 0.0000000 -0.8660255 -0.4999999
vt 0.3129850 0.4820210
v -1.2288100 -2.7758269 0.4397281
vn 0.0000000 -0.8660253 -0.5000001
vt 0.3129850 0.4556010
v -1.0331260 -2.6627750 0.3266748
vn 0.0000000 -0.5000011 -0.8660249
vt 0.3348690 0.4820210
v -1.2288100 -2.6627750 0.3266748
vn 0.0000000 -0.5000011 -0.8660248
vt 0.3348690 0.4556020
v -1.0331260 -2.5083411 0.2852942
vn 0.0000000 0.0000000 -1.0000000
vt 0.2910960 0.4820210
v -1.0331260 -2.6627750 0.3266748
vn 0.0000000 -0.5000011 -0.8660249
vt 0.2692020 0.4820210
v -1.2288100 -2.6627750 0.3266748
vn 0.0000000 -0.5000011 -0.8660248
vt 0.2692020 0.4555960
v -1.2288100 -2.5083411 0.2852944
vn 0.0000000 0.0000000 -1.0000000
vt 0.2910960 0.4555960
v -1.2288100 -2.3539071 0.3266746
vn 0.0000000 0.4999989 -0.8660260
vt 0.3129850 0.4555960
v -1.0331260 -2.3539071 0.3266746
vn 0.0000000 0.4999994 -0.8660258
vt 0.3129850 0.4820210
v -1.0331260 -2.2408540 0.4397278
vn 0.0000000 0.8660246 -0.5000015
vt 0.3348690 0.4820210
v -1.2288100 -2.2408540 0.4397278
vn 0.0000000 0.8660246 -0.5000014
vt 0.3348690 0.4555960
v -1.2288100 -2.2408540 0.4397278
vn 0.0000000 0.8660246 -0.5000014
vt 0.2692020 0.4555960
v -1.0331260 -2.2408540 0.4397278
vn 0.0000000 0.8660246 -0.5000015
vt 0.2692020 0.4820210
v -1.0331260 -2.3539071 0.8616486
vn 1.0000000 0.0000000 0.0000000
vt 0.2767230 0.9911440
v -1.0331260 -2.5083411 0.9030290
vn 1.0000000 0.0000000 0.0000000
vt 0.2595360 0.9957410
v -1.0331260 -2.6627741 0.8616486
vn 1.0000000 0.0000000 0.0000000
vt 0.2423850 0.9911380
v -1.0331270 -2.7758269 0.7485953
vn 1.0000000 0.0000000 0.0000000
vt 0.2298540 0.9785690
v -1.0331260 -2.8172081 0.5941617
vn 1.0000000 0.0000000 0.0000000
vt 0.2252730 0.9614050
v -1.0331260 -2.7758279 0.4397281
vn 1.0000000 0.0000000 0.0000000
vt 0.2298540 0.9442470
v -1.0331260 -2.6627750 0.3266748
vn 1.0000000 0.0000000 0.0000000
vt 0.2423850 0.9316921
v -1.0331260 -2.5083411 0.2852942
vn 1.0000000 0.0000000 0.0000000
vt 0.2595360 0.9271001
v -1.0331260 -2.3539071 0.3266746
vn 1.0000000 0.0000000 0.0000000
vt 0.2767230 0.9316980
v -1.0331260 -2.2408540 0.4397278
vn 1.0000000 0.0000000 0.0000000
vt 0.2893270 0.9442570
v -1.0331270 -2.1994729 0.5941615
vn 1.0000000 0.0000000 0.0000000
vt 0.2939450 0.9614160
v -1.0331260 -2.2408540 0.7485953
vn 1.0000000 0.0000000 0.0000000
vt 0.2893270 0.9785790
v -1.2288110 -2.6627741 0.8616486
vn -1.0000000 0.0000000 0.0000000
vt 0.2457124 0.6164714
v -1.2288100 -2.5083399 0.9030291
vn -1.0000000 0.0000000 0.0000000
vt 0.2256580 0.6252180
v -1.2288100 -2.3539071 0.8616486
vn -1.0000000 0.0000000 0.0000000
vt 0.2060737 0.6181800
v -1.2288110 -2.2408540 0.7485953
vn -1.0000000 0.0000000 0.0000000
vt 0.1911905 0.6032811
v -1.2288100 -2.1994729 0.5941615
vn -1.0000000 0.0000000 0.0000000
vt 0.1837870 0.5829230
v -1.2288100 -2.2408540 0.4397278
vn -1.0000000 0.0000000 0.0000000
vt 0.1906718 0.5625965
v -1.2288100 -2.3539071 0.3266746
vn -1.0000000 0.0000000 0.0000000
vt 0.2046990 0.5463250
v -1.2288100 -2.5083411 0.2852944
vn -1.0000000 0.0000000 0.0000000
vt 0.2250017 0.5422756
v -1.2288100 -2.6627750 0.3266748
vn -1.0000000 0.0000000 0.0000000
vt 0.2457417 0.5477171
v -1.2288100 -2.7758269 0.4397281
vn -1.0000000 0.0000000 0.0000000
vt 0.2612418 0.5626007
v -1.2288100 -2.8172081 0.5941617
vn -1.0000000 0.0000000 0.0000000
vt 0.2673488 0.5829385
v -1.2288110 -2.7758269 0.7485953
vn -1.0000000 0.0000000 0.0000000
vt 0.2620650 0.6040780

g group_184_106652632063232
f 1/1/1 2/2/2 3/3/3 
f 3/3/3 4/4/4 1/1/1 
f 5/5/5 6/6/6 1/1/1 
f 1/1/1 4/4/4 5/5/5 
f 7/7/7 8/8/8 9/9/9 
f 9/9/9 10/10/10 7/7/7 
f 11/11/11 7/7/7 10/10/10 
f 10/10/10 12/12/12 11/11/11 
f 13/13/13 11/11/11 12/12/12 
f 12/12/12 14/14/14 13/13/13 
f 15/15/15 16/16/16 17/17/17 
f 17/17/17 18/18/18 15/15/15 
f 19/19/19 18/18/18 17/17/17 
f 17/17/17 20/20/20 19/19/19 
f 21/21/21 19/19/19 20/20/20 
f 20/20/20 22/22/22 21/21/21 
f 23/23/23 24/24/24 25/25/25 
f 25/25/25 26/26/26 23/23/23 
f 26/26/26 27/27/27 28/28/28 
f 28/28/28 23/23/23 26/26/26 
f 29/29/29 28/28/28 27/27/27 
f 27/27/27 30/30/30 29/29/29 
f 31/31/31 3/3/3 2/2/2 
f 2/2/2 32/32/32 31/31/31 
f 33/33/33 34/34/34 35/35/35 
f 35/35/35 36/36/36 37/37/37 
f 37/37/37 38/38/38 39/39/39 
f 35/35/35 37/37/37 39/39/39 
f 33/33/33 35/35/35 39/39/39 
f 40/40/40 41/41/41 42/42/42 
f 40/40/40 42/42/42 43/43/43 
f 39/39/39 40/40/40 43/43/43 
f 33/33/33 39/39/39 43/43/43 
f 44/44/44 33/33/33 43/43/43 
f 45/45/45 46/46/46 47/47/47 
f 45/45/45 47/47/47 48/48/48 
f 45/45/45 48/48/48 49/49/49 
f 45/45/45 49/49/49 50/50/50 
f 45/45/45 50/50/50 51/51/51 
f 45/45/45 51/51/51 52/52/52 
f 45/45/45 52/52/52 53/53/53 
f 45/45/45 53/53/53 54/54/54 
f 45/45/45 54/54/54 55/55/55 
f 45/45/45 55/55/55 56/56/56 
