v -1.2495270 2.7524250 0.8532205
vn 0.0000000 0.8090176 0.5877845
vt 0.5310490 0.9456800
v -0.9846713 2.7524250 0.8532205
vn 0.0000000 0.8090173 0.5877849
vt 0.4988620 0.9456800
v -0.9846715 2.8050151 0.6913626
vn 0.0000000 1.0000000 0.0000000
vt 0.4988660 0.9247300
v -1.2495270 2.8050151 0.6913626
vn 0.0000000 1.0000000 0.0000000
vt 0.5310540 0.9247300
v -1.2495270 2.6147399 0.9532541
vn 0.0000000 0.3090167 0.9510566
vt 0.5310440 0.9666640
v -0.9846714 2.6147399 0.9532541
vn 0.0000000 0.3090170 0.9510565
vt 0.4988560 0.9666640
v -1.2495270 2.4445529 0.9532541
vn 0.0000000 -0.3090171 0.9510565
vt 0.5310490 0.9456930
v -0.9846715 2.4445529 0.9532541
vn 0.0000000 -0.3090170 0.9510565
vt 0.4988610 0.9456930
v -0.9846714 2.6147399 0.9532541
vn 0.0000000 0.3090170 0.9510565
vt 0.4988660 0.9247430
v -1.2495270 2.6147399 0.9532541
vn 0.0000000 0.3090167 0.9510566
vt 0.5310540 0.9247430
v -1.2495270 2.3068681 0.8532203
vn 0.0000000 -0.8090170 0.5877852
vt 0.5310440 0.9666770
v -0.9846715 2.3068681 0.8532203
vn 0.0000000 -0.8090170 0.5877852
vt 0.4988560 0.9666770
v -1.2495270 2.2542770 0.6913624
vn 0.0000000 -1.0000000 0.0000000
vt 0.5310490 0.9457070
v -0.9846715 2.2542770 0.6913624
vn 0.0000000 -1.0000000 0.0000000
vt 0.4988610 0.9457060
v -0.9846715 2.3068681 0.8532203
vn 0.0000000 -0.8090170 0.5877852
vt 0.4988660 0.9247570
v -1.2495270 2.3068681 0.8532203
vn 0.0000000 -0.8090170 0.5877852
vt 0.5310550 0.9247570
v -0.9846715 2.3068681 0.5295045
vn 0.0000000 -0.8090171 -0.5877852
vt 0.4988560 0.9666900
v -1.2495270 2.3068681 0.5295045
vn 0.0000000 -0.8090171 -0.5877852
vt 0.5310440 0.9666910
v -1.2495270 2.4445529 0.4294707
vn 0.0000000 -0.3090173 -0.9510565
vt 0.5310501 0.9457540
v -0.9846715 2.4445529 0.4294707
vn 0.0000000 -0.3090172 -0.9510565
vt 0.4988610 0.9457540
v -0.9846715 2.3068681 0.5295045
vn 0.0000000 -0.8090171 -0.5877852
vt 0.4988670 0.9248040
v -1.2495270 2.3068681 0.5295045
vn 0.0000000 -0.8090171 -0.5877852
vt 0.5310550 0.9248040
v -1.2495270 2.6147399 0.4294708
vn 0.0000000 0.3090174 -0.9510564
vt 0.5310440 0.9667380
v -0.9846714 2.6147399 0.4294708
vn 0.0000000 0.3090175 -0.9510564
vt 0.4988560 0.9667380
v -1.2495270 2.7524250 0.5295047
vn 0.0000000 0.8090174 -0.5877848
vt 0.5310490 0.9457590
v -0.9846715 2.7524250 0.5295047
vn 0.0000000 0.8090173 -0.5877849
vt 0.4988610 0.9457590
v -0.9846714 2.6147399 0.4294708
vn 0.0000000 0.3090175 -0.9510564
vt 0.4988660 0.9248090
v -1.2495270 2.6147399 0.4294708
vn 0.0000000 0.3090174 -0.9510564
vt 0.5310540 0.9248090
v -0.9846715 2.8050151 0.6913626
vn 0.0000000 1.0000000 0.0000000
vt 0.4988560 0.9667430
v -1.2495270 2.8050151 0.6913626
vn 0.0000000 1.0000000 0.0000000
vt 0.5310440 0.9667430
v -1.2495270 2.8050151 0.6913626
vn -0.9855177 0.1695728 0.0000000
vt 0.2356590 0.7034310
v -1.2495270 2.7524250 0.5295047
vn -0.9855177 0.1371872 -0.0996723
vt 0.2132120 0.6961130
v -1.2575170 2.7148571 0.5567996
vn -0.9855177 0.1371873 -0.0996722
vt 0.2169700 0.6908890
v -1.2575170 2.7585790 0.6913626
vn -0.9855177 0.1695726 0.0000000
vt 0.2356964 0.6969880
v -1.2495270 2.6147399 0.4294708
vn -0.9855177 0.0524006 -0.1612730
vt 0.1993320 0.6769210
v -1.2575170 2.6003900 0.4736350
vn -0.9855177 0.0524010 -0.1612730
vt 0.2054380 0.6749490
v -1.2495270 2.4445529 0.4294707
vn -0.9855179 -0.0524003 -0.1612718
vt 0.1993330 0.6532460
v -1.2575170 2.4589019 0.4736351
vn -0.9855179 -0.0524007 -0.1612718
vt 0.2054320 0.6552400
v -1.2495270 2.3068681 0.5295045
vn -0.9855177 -0.1371868 -0.0996722
vt 0.2131890 0.6340851
v -1.2575170 2.3444359 0.5567996
vn -0.9855178 -0.1371869 -0.0996719
vt 0.2169620 0.6393010
v -1.2495270 2.2542770 0.6913624
vn -0.9855180 -0.1695711 0.0000000
vt 0.2356500 0.6267760
v -1.2575170 2.3007140 0.6913626
vn -0.9855180 -0.1695710 0.0000000
vt 0.2356900 0.6332220
v -1.2495270 2.3068681 0.8532203
vn -0.9855178 -0.1371869 0.0996719
vt 0.2581490 0.6341080
v -1.2575170 2.3444359 0.8259256
vn -0.9855177 -0.1371868 0.0996721
vt 0.2543610 0.6393210
v -1.2495270 2.4445529 0.9532541
vn -0.9855177 -0.0524009 0.1612729
vt 0.2720750 0.6532750
v -1.2575170 2.4589031 0.9090901
vn -0.9855177 -0.0524006 0.1612730
vt 0.2659410 0.6552660
v -1.2495270 2.6147399 0.9532541
vn -0.9855178 0.0524006 0.1612727
vt 0.2720820 0.6769610
v -1.2575170 2.6003900 0.9090900
vn -0.9855178 0.0524003 0.1612727
vt 0.2659480 0.6749690
v -1.2495270 2.7524250 0.8532205
vn -0.9855176 0.1371876 0.0996727
vt 0.2581600 0.6961210
v -1.2575170 2.7148571 0.8259256
vn -0.9855176 0.1371877 0.0996722
vt 0.2543720 0.6909080
v -1.2575170 2.7148571 0.8259256
vn -0.2904447 -0.7741411 -0.5624477
vt 0.2170080 0.6909080
v -1.2575170 2.7585790 0.6913626
vn -0.2904372 -0.9568941 0.0000000
vt 0.2356964 0.6969880
v -1.1778430 2.7343960 0.6913626
vn -0.2904378 -0.9568939 0.0000000
vt 0.2357237 0.6921757
v -1.1778430 2.6952920 0.8117111
vn -0.2904461 -0.7741383 -0.5624509
vt 0.2198343 0.6870140
v -1.1778430 2.5929160 0.8860904
vn -0.2904437 -0.2956923 -0.9100596
vt 0.2100092 0.6734812
v -1.2575170 2.6003900 0.9090900
vn -0.2904447 -0.2956965 -0.9100580
vt 0.2054320 0.6749691
v -1.1778430 2.4663751 0.8860904
vn -0.2904415 0.2956958 -0.9100593
vt 0.2100161 0.6567525
v -1.2575170 2.4589031 0.9090901
vn -0.2904411 0.2956946 -0.9100598
vt 0.2054390 0.6552660
v -1.1778430 2.3640010 0.8117111
vn -0.2904381 0.7741437 -0.5624475
vt 0.2198462 0.6432136
v -1.2575170 2.3444359 0.8259256
vn -0.2904375 0.7741437 -0.5624478
vt 0.2170190 0.6393210
v -1.1778430 2.3248971 0.6913624
vn -0.2904358 0.9568945 0.0000000
vt 0.2357315 0.6380342
v -1.2575170 2.3007140 0.6913626
vn -0.2904356 0.9568946 0.0000000
vt 0.2356900 0.6332220
v -1.1778430 2.3640010 0.5710141
vn -0.2904360 0.7741446 0.5624473
vt 0.2515992 0.6431959
v -1.2575170 2.3444359 0.5567996
vn -0.2904363 0.7741438 0.5624483
vt 0.2544180 0.6393010
v -1.1778430 2.4663751 0.4966345
vn -0.2904389 0.2956967 0.9100598
vt 0.2613918 0.6567308
v -1.2575170 2.4589019 0.4736351
vn -0.2904394 0.2956970 0.9100595
vt 0.2659480 0.6552400
v -1.1778430 2.5929170 0.4966345
vn -0.2904404 -0.2956960 0.9100595
vt 0.2613859 0.6734605
v -1.2575170 2.6003900 0.4736350
vn -0.2904408 -0.2956966 0.9100592
vt 0.2659420 0.6749490
v -1.1778430 2.6952920 0.5710141
vn -0.2904416 -0.7741425 0.5624474
vt 0.2515893 0.6869974
v -1.2575170 2.7148571 0.5567996
vn -0.2904435 -0.7741428 0.5624460
vt 0.2544100 0.6908890
v -1.2149889 2.6420169 0.6913626
vn 0.0876169 0.9951592 -0.0445139
vt 0.2730350 0.5578750
v -1.2149889 2.6091030 0.7708203
vn 0.0876158 0.6722018 0.7351654
vt 0.2612340 0.5578710
v -1.0078900 2.6255600 0.7310915
vn 0.1697938 0.9104640 0.3771279
vt 0.2612340 0.5498710
v -1.0078900 2.4899170 0.7872764
vn 0.1452661 0.3786239 0.9140797
vt 0.2730540 0.5498971
v -1.0078900 2.6255600 0.7310915
vn 0.1697938 0.9104640 0.3771279
vt 0.2848640 0.5499000
v -1.2149889 2.6091030 0.7708203
vn 0.0876158 0.6722018 0.7351654
vt 0.2848640 0.5579000
v -1.2149889 2.5296459 0.8037328
vn 0.1452678 0.3786266 0.9140784
vt 0.2730540 0.5578970
v -1.0078900 2.4899170 0.7872764
vn 0.1192468 -0.8405211 0.5284927
vt 0.2730540 0.5498971
v -1.2149889 2.5296459 0.8037328
vn 0.0000000 -0.3826838 0.9238794
vt 0.2730540 0.5578970
v -1.2149889 2.4501879 0.7708201
vn 0.0876160 -0.7351629 0.6722047
vt 0.2612520 0.5578930
v -1.0078900 2.4337320 0.6516337
vn 0.1192469 -0.9680383 0.2206400
vt 0.2730290 0.5498900
v -1.0078900 2.4899170 0.7872764
vn 0.1192468 -0.8405211 0.5284927
vt 0.2848390 0.5498940
v -1.2149889 2.4501879 0.7708201
vn 0.0876160 -0.7351629 0.6722047
vt 0.2848390 0.5578940
v -1.2149889 2.4172759 0.6913626
vn 0.0876161 -0.9951590 0.0445206
vt 0.2730290 0.5578900
v -1.2149889 2.4501879 0.6119047
vn 0.0000000 -0.9238806 -0.3826807
vt 0.2612270 0.5578870
v -1.0078900 2.4337320 0.6516337
vn 0.1192469 -0.9680383 0.2206400
vt 0.2612270 0.5498870
v -1.2149889 2.5296459 0.5789922
vn 0.0876165 -0.0445209 -0.9951589
vt 0.2730430 0.5578780
v -1.0078900 2.5693750 0.5954484
vn 0.1192472 -0.2206389 -0.9680385
vt 0.2730430 0.5498770
v -1.0078900 2.4337320 0.6516337
vn 0.1452670 -0.3786248 -0.9140792
vt 0.2848530 0.5498810
v -1.2149889 2.4501879 0.6119047
vn 0.1452671 -0.3786247 -0.9140792
vt 0.2848530 0.5578810
v -1.2149889 2.6091039 0.6119046
vn 0.0000000 0.3826800 -0.9238810
vt 0.2612410 0.5578740
v -1.0078900 2.6255600 0.7310915
vn 0.1697938 0.9104640 0.3771279
vt 0.2730350 0.5498750
v -1.0078900 2.5693750 0.5954484
vn 0.1452678 0.9140797 -0.3786233
vt 0.2848450 0.5498780
v -1.2149889 2.6091039 0.6119046
vn 0.1452693 0.9140806 -0.3786208
vt 0.2848460 0.5578780
v -1.2149889 2.5296459 0.5789922
vn -1.0000000 0.0000000 0.0000000
vt 0.2505980 0.7105820
v -1.2149889 2.4501879 0.6119047
vn -1.0000000 0.0000000 0.0000000
vt 0.2551020 0.6997070
v -1.2149889 2.4172759 0.6913626
vn -1.0000000 0.0000000 0.0000000
vt 0.2659820 0.6952040
v -1.2149889 2.4501879 0.7708201
vn -1.0000000 0.0000000 0.0000000
vt 0.2768700 0.6997130
v -1.2149889 2.5296459 0.8037328
vn -1.0000000 0.0000000 0.0000000
vt 0.2813830 0.7105901
v -1.2149889 2.6091030 0.7708203
vn -1.0000000 0.0000000 0.0000000
vt 0.2768700 0.7214630
v -1.2149889 2.6420169 0.6913626
vn -1.0000000 0.0000000 0.0000000
vt 0.2659820 0.7259640
v -1.2149889 2.6091039 0.6119046
vn -1.0000000 0.0000000 0.0000000
vt 0.2551020 0.7214570
v -1.1778430 2.3248971 0.6913624
vn -1.0000000 0.0000000 0.0000000
vt 0.1594454 0.6374311
v -1.1778430 2.3640010 0.8117111
vn -1.0000000 0.0000000 0.0000000
vt 0.1745854 0.6423612
v -1.1778430 2.4663751 0.8860904
vn -1.0000000 0.0000000 0.0000000
vt 0.1839514 0.6552612
v -1.1778430 2.5929160 0.8860904
vn -1.0000000 0.0000000 0.0000000
vt 0.1839514 0.6712031
v -1.1778430 2.6952920 0.8117111
vn -1.0000000 0.0000000 0.0000000
vt 0.1745854 0.6840971
v -1.1778430 2.7343960 0.6913626
vn -1.0000000 0.0000000 0.0000000
vt 0.1594454 0.6890191
v -1.1778430 2.6952920 0.5710141
vn -1.0000000 0.0000000 0.0000000
vt 0.1443254 0.6840901
v -1.1778430 2.5929170 0.4966345
vn -1.0000000 0.0000000 0.0000000
vt 0.1349904 0.6711921
v -1.1778430 2.4663751 0.4966345
vn -1.0000000 0.0000000 0.0000000
vt 0.1349904 0.6552501
v -1.1778430 2.3640010 0.5710141
vn -1.0000000 0.0000000 0.0000000
vt 0.1443254 0.6423541
v -0.9846715 2.3068681 0.5295045
vn 1.0000000 0.0000000 0.0000000
vt 0.1298825 0.6424538
v -0.9846715 2.4445529 0.4294707
vn 1.0000000 0.0000000 0.0000000
vt 0.1479822 0.6293036
v -0.9846714 2.6147399 0.4294708
vn 1.0000000 0.0000000 0.0000000
vt 0.1703547 0.6293036
v -0.9846715 2.7524250 0.5295047
vn 1.0000000 0.0000000 0.0000000
vt 0.1884544 0.6424538
v -0.9846715 2.8050151 0.6913626
vn 1.0000000 0.0000000 0.0000000
vt 0.1953679 0.6637313
v -0.9846713 2.7524250 0.8532205
vn 1.0000000 0.0000000 0.0000000
vt 0.1884544 0.6850089
v -0.9846714 2.6147399 0.9532541
vn 1.0000000 0.0000000 0.0000000
vt 0.1703547 0.6981591
v -0.9846715 2.4445529 0.9532541
vn 1.0000000 0.0000000 0.0000000
vt 0.1479822 0.6981591
v -0.9846715 2.3068681 0.8532203
vn 1.0000000 0.0000000 0.0000000
vt 0.1298825 0.6850089
v -0.9846715 2.2542770 0.6913624
vn 1.0000000 0.0000000 0.0000000
vt 0.1229690 0.6637313

g group_174_106652632061952
f 1/1/1 2/2/2 3/3/3 
f 3/3/3 4/4/4 1/1/1 
f 1/1/1 5/5/5 6/6/6 
f 6/6/6 2/2/2 1/1/1 
f 7/7/7 8/8/8 9/9/9 
f 9/9/9 10/10/10 7/7/7 
f 8/8/8 7/7/7 11/11/11 
f 11/11/11 12/12/12 8/8/8 
f 13/13/13 14/14/14 15/15/15 
f 15/15/15 16/16/16 13/13/13 
f 17/17/17 14/14/14 13/13/13 
f 13/13/13 18/18/18 17/17/17 
f 19/19/19 20/20/20 21/21/21 
f 21/21/21 22/22/22 19/19/19 
f 23/23/23 24/24/24 20/20/20 
f 20/20/20 19/19/19 23/23/23 
f 25/25/25 26/26/26 27/27/27 
f 27/27/27 28/28/28 25/25/25 
f 29/29/29 26/26/26 25/25/25 
f 25/25/25 30/30/30 29/29/29 
f 31/31/31 32/32/32 33/33/33 
f 33/33/33 34/34/34 31/31/31 
f 35/35/35 36/36/36 33/33/33 
f 33/33/33 32/32/32 35/35/35 
f 35/35/35 37/37/37 38/38/38 
f 38/38/38 36/36/36 35/35/35 
f 39/39/39 40/40/40 38/38/38 
f 38/38/38 37/37/37 39/39/39 
f 41/41/41 42/42/42 40/40/40 
f 40/40/40 39/39/39 41/41/41 
f 42/42/42 41/41/41 43/43/43 
f 43/43/43 44/44/44 42/42/42 
f 43/43/43 45/45/45 46/46/46 
f 46/46/46 44/44/44 43/43/43 
f 46/46/46 45/45/45 47/47/47 
f 47/47/47 48/48/48 46/46/46 
f 47/47/47 49/49/49 50/50/50 
f 50/50/50 48/48/48 47/47/47 
f 50/50/50 49/49/49 31/31/31 
f 31/31/31 34/34/34 50/50/50 
f 51/51/51 52/52/52 53/53/53 
f 53/53/53 54/54/54 51/51/51 
f 51/51/51 54/54/54 55/55/55 
f 55/55/55 56/56/56 51/51/51 
f 56/56/56 55/55/55 57/57/57 
f 57/57/57 58/58/58 56/56/56 
f 58/58/58 57/57/57 59/59/59 
f 59/59/59 60/60/60 58/58/58 
f 61/61/61 62/62/62 60/60/60 
f 60/60/60 59/59/59 61/61/61 
f 63/63/63 64/64/64 62/62/62 
f 62/62/62 61/61/61 63/63/63 
f 64/64/64 63/63/63 65/65/65 
f 65/65/65 66/66/66 64/64/64 
f 67/67/67 68/68/68 66/66/66 
f 66/66/66 65/65/65 67/67/67 
f 69/69/69 70/70/70 68/68/68 
f 68/68/68 67/67/67 69/69/69 
f 69/69/69 53/53/53 52/52/52 
f 52/52/52 70/70/70 69/69/69 
f 71/71/71 72/72/72 73/73/73 
f 74/74/74 75/75/75 76/76/76 
f 76/76/76 77/77/77 74/74/74 
f 78/78/78 79/79/79 80/80/80 
f 81/81/81 82/82/82 83/83/83 
f 83/83/83 84/84/84 81/81/81 
f 84/84/84 85/85/85 86/86/86 
f 87/87/87 88/88/88 89/89/89 
f 89/89/89 90/90/90 87/87/87 
f 88/88/88 87/87/87 91/91/91 
f 71/71/71 92/92/92 93/93/93 
f 93/93/93 94/94/94 71/71/71 
f 95/95/95 96/96/96 97/97/97 
f 97/97/97 98/98/98 99/99/99 
f 95/95/95 97/97/97 99/99/99 
f 95/95/95 99/99/99 100/100/100 
f 95/95/95 100/100/100 101/101/101 
f 95/95/95 101/101/101 102/102/102 
f 103/103/103 104/104/104 105/105/105 
f 103/103/103 105/105/105 106/106/106 
f 103/103/103 106/106/106 107/107/107 
f 103/103/103 107/107/107 108/108/108 
f 103/103/103 108/108/108 109/109/109 
f 109/109/109 110/110/110 111/111/111 
f 109/109/109 111/111/111 112/112/112 
f 103/103/103 109/109/109 112/112/112 
f 113/113/113 114/114/114 115/115/115 
f 113/113/113 115/115/115 116/116/116 
f 113/113/113 116/116/116 117/117/117 
f 113/113/113 117/117/117 118/118/118 
f 113/113/113 118/118/118 119/119/119 
f 113/113/113 119/119/119 120/120/120 
f 113/113/113 120/120/120 121/121/121 
f 113/113/113 121/121/121 122/122/122 
