v -0.9420176 2.7969289 0.8649326
vn 0.0000000 0.8492644 0.5279679
vt 0.8703002 -3.3094039
v -1.3079540 2.7969279 0.8649330
vn 0.0000000 0.8492622 0.5279714
vt 0.5029923 -3.3101411
v -0.9420176 2.6787691 0.9739966
vn 0.0000000 0.4609696 0.8874160
vt 0.8703002 -3.1822200
v -1.3079540 2.6787670 0.9739963
vn 0.0000000 0.4609652 0.8874183
vt 0.5029923 -3.1843033
v -0.9420177 2.5211360 1.0080540
vn 0.0000000 0.1000699 0.9949804
vt 0.8703002 -3.0535069
v -1.3079540 2.5211351 1.0080540
vn 0.0000000 0.1000678 0.9949806
vt 0.5029923 -3.0578661
v -0.9420173 2.5753839 0.3568754
vn 0.0000000 0.5046471 -0.8633257
vt 0.8703002 -3.8101821
v -1.3079540 2.5753839 0.3568754
vn 0.0000000 0.5046477 -0.8633254
vt 0.5029923 -3.8070850
v -0.9420176 2.7010009 0.4370643
vn 0.0000000 0.6368878 -0.7709566
vt 0.8703002 -3.6912460
v -1.3079540 2.7010009 0.4370643
vn 0.0000000 0.6368874 -0.7709569
vt 0.5029923 -3.6871409
v -0.9420176 2.8089190 0.5510557
vn 0.0000000 0.8867046 -0.4623364
vt 0.8703002 -3.5663052
v -1.3079540 2.8089190 0.5510557
vn 0.0000000 0.8867045 -0.4623366
vt 0.5029923 -3.5635242
v -0.9420179 2.8420770 0.7119675
vn 0.0000000 0.9991226 0.0418813
vt 0.8703002 -3.4357452
v -1.3079540 2.8420770 0.7119675
vn 0.0000000 0.9991226 0.0418826
vt 0.5029923 -3.4349632
v -1.3079540 1.9851410 0.0421997
vn 0.0000000 0.3565399 -0.9342801
vt 0.5029923 -4.3540010
v -0.9420177 1.9851400 0.0421997
vn 0.0000000 0.3565396 -0.9342803
vt 0.8703002 -4.3545818
v -1.3079540 -1.8121910 0.0014673
vn 0.0000000 -0.1485397 -0.9889064
vt 0.5029923 2.5616679
v -1.3079540 1.8121920 0.0000000
vn 0.0000000 0.1191765 -0.9928731
vt 0.5029923 5.5000000
v -0.9420171 -1.8121920 0.0014673
vn 0.0000000 -0.1485297 -0.9889080
vt 0.8703002 2.5607240
v -0.9420174 1.8121910 0.0000000
vn 0.0000000 0.1191762 -0.9928731
vt 0.8703002 5.5000000
v -1.3079540 1.8121920 0.0000000
vn 0.0000000 0.1191765 -0.9928731
vt 0.5029923 -4.5000000
v -0.9420174 1.8121910 0.0000000
vn 0.0000000 0.1191762 -0.9928731
vt 0.8703002 -4.5000000
v -1.3082340 -2.7441471 0.8598623
vn 0.0000000 -0.6814949 0.7318229
vt 0.5029923 1.3003320
v -1.3082340 -2.8285260 0.7328252
vn 0.0000000 -0.9232159 0.3842816
vt 0.5029923 1.4200259
v -0.9419178 -2.7441471 0.8598623
vn 0.0000000 -0.6814959 0.7318220
vt 0.8703002 1.2931570
v -0.9419178 -2.8285251 0.7328252
vn 0.0000000 -0.9232152 0.3842836
vt 0.8703002 1.4106489
v -1.3082340 -2.6178689 0.9313461
vn 0.0000000 -0.3009354 0.9536446
vt 0.5029923 1.1883889
v -0.9419178 -2.6178689 0.9313461
vn 0.0000000 -0.3009351 0.9536446
vt 0.8703002 1.1830540
v -1.3082340 -2.4581871 0.9467614
vn 0.0000000 -0.0542483 0.9985275
vt 0.5029923 1.0636539
v -0.9419174 -2.4581881 0.9467614
vn 0.0000000 -0.0542479 0.9985275
vt 0.8703002 1.0581990
v -1.3082340 -2.7517359 0.3381243
vn 0.0000000 -0.6969791 -0.7170915
vt 0.5029923 1.7543210
v -1.3082340 -2.6157041 0.2480401
vn 0.0000000 -0.4271605 -0.9041759
vt 0.5029923 1.8833280
v -0.9419178 -2.7517359 0.3381243
vn 0.0000000 -0.6969788 -0.7170918
vt 0.8703002 1.7526230
v -0.9419178 -2.6157041 0.2480401
vn 0.0000000 -0.4271508 -0.9041804
vt 0.8703002 1.8842200
v -1.3082340 -2.8295619 0.4486816
vn 0.0000000 -0.9181184 -0.3963062
vt 0.5029923 1.6481760
v -0.9419175 -2.8295619 0.4486816
vn 0.0000000 -0.9181178 -0.3963077
vt 0.8703002 1.6423210
v -1.3082340 -2.8581541 0.5885680
vn 0.0000000 -0.9999999 0.0004772
vt 0.5029923 1.5360190
v -0.9419175 -2.8581541 0.5885680
vn 0.0000000 -0.9999999 0.0004787
vt 0.8703002 1.5270830
v -1.3250010 2.6591370 0.9397321
vn 0.0000000 -0.4583879 -0.8887522
vt 0.0037700 -3.1838150
v -1.3250010 2.7629490 0.8440617
vn 0.0000000 -0.8483999 -0.5293559
vt 0.0037700 -3.3098831
v -0.9249705 2.6591389 0.9397327
vn 0.0000000 -0.4583896 -0.8887514
vt 0.3771447 -3.1901588
v -0.9249705 2.7629499 0.8440617
vn 0.0000000 -0.8484030 -0.5293509
vt 0.3771447 -3.3138037
v -1.3250010 2.5198400 0.9690958
vn 0.0000000 -0.0975336 -0.9952323
vt 0.0037700 -3.0577121
v -0.9249706 2.5198410 0.9690957
vn 0.0000000 -0.0975333 -0.9952323
vt 0.3771447 -3.0645008
v -1.3250010 1.9680400 0.0808104
vn 0.0000000 -0.3540766 0.9352164
vt 0.0037700 -4.3535380
v -0.9249706 1.9680390 0.0808104
vn 0.0000000 -0.3540763 0.9352165
vt 0.3771447 -4.3488679
v -1.3250010 2.5525770 0.3911158
vn 0.0000000 -0.4977719 0.8673080
vt 0.0037700 -3.8093433
v -0.9249706 2.5525761 0.3911158
vn 0.0000000 -0.4977721 0.8673079
vt 0.3771447 -3.8070660
v -1.3250010 2.6721940 0.4651185
vn 0.0000000 -0.6234066 0.7818979
vt 0.0037700 -3.6895742
v -0.9249702 2.6721940 0.4651185
vn 0.0000000 -0.6234078 0.7818969
vt 0.3771447 -3.6881289
v -1.3250010 2.7719951 0.5662769
vn 0.0000000 -0.8814304 0.4723139
vt 0.0037700 -3.5653753
v -0.9249705 2.7719929 0.5662769
vn 0.0000000 -0.8814299 0.4723149
vt 0.3771447 -3.5654140
v -1.3250010 2.8023069 0.7119285
vn 0.0000000 -0.9991117 -0.0421407
vt 0.0037700 -3.4333301
v -0.9249705 2.8023059 0.7119285
vn 0.0000000 -0.9991119 -0.0421363
vt 0.3771447 -3.4350042
v -1.3250010 1.8050640 0.0416478
vn 0.0000000 -0.1174177 0.9930826
vt 0.0037700 -4.5000000
v -0.9249703 1.8050630 0.0416478
vn 0.0000000 -0.1174177 0.9930826
vt 0.3771447 -4.5000000
v -1.3249789 -2.7914269 0.7181622
vn 0.0000000 0.9222986 -0.3864782
vt 0.0037700 1.4206240
v -1.3249789 -2.7151430 0.8323272
vn 0.0000000 0.6762087 -0.7367101
vt 0.0037700 1.2997020
v -0.9251735 -2.7914259 0.7181622
vn 0.0000000 0.9223298 -0.3864037
vt 0.3771447 1.4429320
v -0.9251735 -2.7151439 0.8323272
vn 0.0000000 0.6762100 -0.7367089
vt 0.3771447 1.3222830
v -1.3249780 -2.6009791 0.8952099
vn 0.0000000 0.2881908 -0.9575731
vt 0.0037700 1.1859170
v -0.9251735 -2.6009791 0.8952099
vn 0.0000000 0.2881893 -0.9575735
vt 0.3771447 1.2058880
v -1.3249780 -2.4489031 0.9075872
vn 0.0000000 0.0467771 -0.9989054
vt 0.0037700 1.0570520
v -0.9251730 -2.4489031 0.9075872
vn 0.0000000 0.0467766 -0.9989054
vt 0.3771447 1.0677530
v -1.3249789 -2.5977139 0.2847761
vn 0.0000000 0.4235627 0.9058669
vt 0.0037700 1.8863580
v -1.3249780 -2.7227261 0.3664773
vn 0.0000000 0.6926185 0.7213041
vt 0.0037700 1.7559260
v -0.9251735 -2.5977139 0.2847761
vn 0.0000000 0.4235542 0.9058708
vt 0.3771447 1.8886200
v -0.9251735 -2.7227261 0.3664773
vn 0.0000000 0.6926203 0.7213024
vt 0.3771447 1.7674550
v -1.3249789 -2.7924631 0.4642773
vn 0.0000000 0.9165304 0.3999650
vt 0.0037700 1.6494780
v -0.9251735 -2.7924621 0.4642773
vn 0.0000000 0.9165659 0.3998837
vt 0.3771447 1.6670600
v -1.3249789 -2.8182130 0.5890496
vn 0.0000000 0.9999999 -0.0005196
vt 0.0037700 1.5369530
v -0.9249997 -2.8182139 0.5890496
vn 0.0000000 0.9999999 -0.0005217
vt 0.3771447 1.5577700
v -1.3250010 2.6591370 0.9397321
vn -0.9181556 0.1794590 0.3532490
vt 0.4247023 -3.1838150
v -1.3079540 2.6787670 0.9739963
vn -0.9179695 0.1845676 0.3510938
vt 0.5029923 -3.1843033
v -1.3250010 2.7629490 0.8440617
vn -0.9195367 0.3332152 0.2083745
vt 0.4247023 -3.3098831
v -1.3079540 2.7969279 0.8649330
vn -0.9193723 0.3340582 0.2077491
vt 0.5029923 -3.3101411
v -0.9249705 2.6591389 0.9397327
vn 0.9181528 0.1794627 0.3532543
vt 0.3771447 -3.1901588
v -0.9249705 2.7629499 0.8440617
vn 0.9195333 0.3332235 0.2083760
vt 0.3771447 -3.3138037
v -0.9420176 2.6787691 0.9739966
vn 0.9179664 0.1845725 0.3510993
vt 0.4145460 -3.1899023
v -0.9420176 2.7969289 0.8649326
vn 0.9193687 0.3340671 0.2077509
vt 0.4145460 -3.3134499
v -0.9249706 1.9680390 0.0808104
vn 0.9272221 0.1315934 -0.3506313
vt 0.3771447 -4.3488679
v -0.9420177 1.9851400 0.0421997
vn 0.9270458 0.1346221 -0.3499470
vt 0.4145460 -4.3493881
v -0.9249706 2.5525761 0.3911158
vn 0.9236125 0.1906662 -0.3325452
vt 0.3771447 -3.8070660
v -0.9420173 2.5753839 0.3568754
vn 0.9229035 0.1928249 -0.3332683
vt 0.4145460 -3.8040247
v -0.9420176 2.7010009 0.4370643
vn 0.9187753 0.2510771 -0.3046512
vt 0.4145460 -3.6841121
v -0.9249702 2.6721940 0.4651185
vn 0.9201843 0.2431974 -0.3067831
vt 0.3771447 -3.6881289
v -1.3250010 2.6721940 0.4651185
vn -0.9201872 0.2431919 -0.3067788
vt 0.4247023 -3.6895742
v -1.3250010 2.7719951 0.5662769
vn -0.9197867 0.3439599 -0.1889021
vt 0.4247023 -3.5653753
v -1.3079540 2.7010009 0.4370643
vn -0.9187783 0.2510708 -0.3046473
vt 0.5029923 -3.6871409
v -1.3079540 2.8089190 0.5510557
vn -0.9191788 0.3511939 -0.1782504
vt 0.5029923 -3.5635242
v -0.9249705 2.7719929 0.5662769
vn 0.9197862 0.3439605 -0.1889033
vt 0.3771447 -3.5654140
v -0.9420176 2.8089190 0.5510557
vn 0.9191780 0.3511959 -0.1782505
vt 0.4145460 -3.5627670
v -1.3250010 2.8023069 0.7119285
vn -0.9191614 0.3934027 0.0194097
vt 0.4247023 -3.4333301
v -1.3079540 2.8420770 0.7119675
vn -0.9190343 0.3939067 0.0146134
vt 0.5029923 -3.4349632
v -0.9249705 2.8023059 0.7119285
vn 0.9191559 0.3934156 0.0194090
vt 0.3771447 -3.4350042
v -0.9420179 2.8420770 0.7119675
vn 0.9190282 0.3939210 0.0146131
vt 0.4145460 -3.4362717
v -1.3250010 2.5525770 0.3911158
vn -0.9236122 0.1906678 -0.3325452
vt 0.4247023 -3.8093433
v -1.3079540 2.5753839 0.3568754
vn -0.9229035 0.1928258 -0.3332678
vt 0.5029923 -3.8070850
v -1.3250010 1.9680400 0.0808104
vn -0.9272244 0.1315907 -0.3506263
vt 0.4247023 -4.3535380
v -1.3079540 1.9851410 0.0421997
vn -0.9270481 0.1346195 -0.3499421
vt 0.5029923 -4.3540010
v -0.9249700 -1.8054349 0.0432613
vn 0.9276137 -0.0548089 -0.3694980
vt 0.3771447 2.5679750
v -0.9420171 -1.8121920 0.0014673
vn 0.9275683 -0.0556103 -0.3694923
vt 0.4145460 2.5647421
v -0.9249703 1.8050630 0.0416478
vn 0.9271689 0.0425048 -0.3722245
vt 0.3771447 5.5000000
v -0.9420174 1.8121910 0.0000000
vn 0.9270568 0.0453629 -0.3721665
vt 0.4145460 5.5000000
v -1.3250010 1.8050640 0.0416478
vn -0.9271694 0.0424949 -0.3722245
vt 0.4247023 5.5000000
v -1.3079540 1.8121920 0.0000000
vn -0.9270610 0.0453536 -0.3721571
vt 0.5029923 5.5000000
v -1.3250010 -1.8054349 0.0432613
vn -0.9276137 -0.0547015 -0.3695140
vt 0.4247023 2.5658720
v -1.3079540 -1.8121910 0.0014673
vn -0.9275716 -0.0554988 -0.3695008
vt 0.5029923 2.5616679
v -1.3250010 1.8050640 0.0416478
vn -0.9271694 0.0424949 -0.3722245
vt 0.4247023 -4.5000000
v -1.3079540 1.8121920 0.0000000
vn -0.9270610 0.0453536 -0.3721571
vt 0.5029923 -4.5000000
v -0.9249703 1.8050630 0.0416478
vn 0.9271689 0.0425048 -0.3722245
vt 0.3771447 -4.5000000
v -0.9420174 1.8121910 0.0000000
vn 0.9270568 0.0453629 -0.3721665
vt 0.4145460 -4.5000000
v -0.9251735 -2.7151439 0.8323272
vn 0.9225432 -0.2592661 0.2858236
vt 0.3771447 1.3222830
v -0.9419178 -2.7441471 0.8598623
vn 0.9220585 -0.2654797 0.2816538
vt 0.4143030 1.3257010
v -0.9251735 -2.7914259 0.7181622
vn 0.9221492 -0.3563371 0.1505482
vt 0.3771447 1.4429320
v -0.9419178 -2.8285251 0.7328252
vn 0.9217895 -0.3579143 0.1490018
vt 0.4143030 1.4459790
v -1.3249789 -2.7151430 0.8323272
vn -0.9225419 -0.2592660 0.2858282
vt 0.4247023 1.2997020
v -1.3249789 -2.7914269 0.7181622
vn -0.9221520 -0.3565628 0.1499957
vt 0.4247023 1.4206240
v -1.3082340 -2.7441471 0.8598623
vn -0.9220570 -0.2654810 0.2816571
vt 0.5029923 1.3003320
v -1.3082340 -2.8285260 0.7328252
vn -0.9219433 -0.3577382 0.1484724
vt 0.5029923 1.4200259
v -0.9251735 -2.6009791 0.8952099
vn 0.9209938 -0.1072459 0.3745248
vt 0.3771447 1.2058880
v -0.9419178 -2.6178689 0.9313461
vn 0.9204050 -0.1211364 0.3717266
vt 0.4143030 1.2117569
v -1.3249780 -2.6009791 0.8952099
vn -0.9209917 -0.1072455 0.3745300
vt 0.4247023 1.1859170
v -1.3082340 -2.6178689 0.9313461
vn -0.9204029 -0.1211361 0.3717319
vt 0.5029923 1.1883889
v -0.9419174 -2.4581881 0.9467614
vn 0.9194506 -0.0202922 0.3926817
vt 0.4143030 1.0766420
v -0.9251730 -2.4489031 0.9075872
vn 0.9197690 -0.0167634 0.3921019
vt 0.3771447 1.0677530
v -1.3250010 2.5198400 0.9690958
vn -0.9168012 0.0410247 0.3972313
vt 0.4247023 -3.0577121
v -1.3249780 -2.4489031 0.9075872
vn -0.9197672 -0.0167443 0.3921072
vt 0.4247023 1.0570520
v -1.3082340 -2.4581871 0.9467614
vn -0.9194487 -0.0202762 0.3926869
vt 0.5029923 1.0636539
v -1.3079540 2.5211351 1.0080540
vn -0.9166963 0.0379235 0.3977810
vt 0.5029923 -3.0578661
v -1.3249789 -2.5977139 0.2847761
vn -0.9254754 -0.1600593 -0.3433312
vt 0.4247023 1.8863580
v -1.3082340 -2.6157041 0.2480401
vn -0.9251562 -0.1615873 -0.3434757
vt 0.5029923 1.8833280
v -1.3082340 -2.7517359 0.3381243
vn -0.9240131 -0.2665866 -0.2741010
vt 0.5029923 1.7543210
v -1.3249780 -2.7227261 0.3664773
vn -0.9245352 -0.2636476 -0.2751814
vt 0.4247023 1.7559260
v -0.9251735 -2.7227261 0.3664773
vn 0.9245355 -0.2636490 -0.2751788
vt 0.3771447 1.7674550
v -0.9251735 -2.7924621 0.4642773
vn 0.9233096 -0.3522704 -0.1529868
vt 0.3771447 1.6670600
v -0.9419178 -2.7517359 0.3381243
vn 0.9240142 -0.2665858 -0.2740983
vt 0.4143030 1.7678570
v -0.9419175 -2.8295619 0.4486816
vn 0.9232727 -0.3528386 -0.1518961
vt 0.4143030 1.6696090
v -1.3249789 -2.7924631 0.4642773
vn -0.9234397 -0.3519964 -0.1528322
vt 0.4247023 1.6494780
v -1.3082340 -2.8295619 0.4486816
vn -0.9232632 -0.3528606 -0.1519029
vt 0.5029923 1.6481760
v -0.9249997 -2.8182139 0.5890496
vn 0.9210263 -0.3895005 0.0000000
vt 0.3771447 1.5577700
v -0.9419175 -2.8581541 0.5885680
vn 0.9210606 -0.3894182 -0.0009842
vt 0.4143030 1.5609140
v -1.3249789 -2.8182130 0.5890496
vn -0.9223139 -0.3864411 0.0005225
vt 0.4247023 1.5369530
v -1.3082340 -2.8581541 0.5885680
vn -0.9223252 -0.3864143 -0.0005580
vt 0.5029923 1.5360190
v -1.3250010 1.8050640 0.0416478
vn 0.0000000 -0.1174177 0.9930826
vt 0.0037700 5.5000000
v -1.3250010 -1.8054349 0.0432613
vn 0.0000000 0.1476242 0.9890435
vt 0.0037700 2.5658720
v -0.9249703 1.8050630 0.0416478
vn 0.0000000 -0.1174177 0.9930826
vt 0.3771447 5.5000000
v -0.9249700 -1.8054349 0.0432613
vn 0.0000000 0.1476139 0.9890451
vt 0.3771447 2.5679750
v -0.9251735 -2.5977139 0.2847761
vn 0.9254794 -0.1601454 -0.3432802
vt 0.3771447 1.8886200
v -0.9419178 -2.6157041 0.2480401
vn 0.9251602 -0.1616737 -0.3434243
vt 0.4143030 1.8850690
v -0.9249706 2.5198410 0.9690957
vn 0.9168027 0.0410075 0.3972294
vt 0.3771447 -3.0645008
v -0.9420177 2.5211360 1.0080540
vn 0.9166976 0.0379054 0.3977796
vt 0.4145460 -3.0677810
v -1.1249990 2.5051770 0.5016547
vn -0.9967661 -0.0287314 0.0750454
vt 0.9819270 -3.8006530
v -1.1249990 2.6156199 0.5280050
vn -0.9950280 -0.0427130 0.0899714
vt 0.9819270 -3.7022457
v -1.1347400 2.5533750 0.3907233
vn -0.9962103 -0.0372951 0.0785759
vt 0.8735369 -3.8151560
v -1.1347400 2.6726000 0.4652094
vn -0.9932551 -0.0614373 0.0983354
vt 0.8735220 -3.7091360
v -1.1347400 1.9685440 0.0797398
vn -0.9966305 -0.0300515 0.0763183
vt 0.8735369 -4.3678179
v -1.1249990 1.9158469 0.1871928
vn -0.9966832 -0.0295577 0.0758214
vt 0.9819270 -4.3690610
v -1.1347400 -1.8046610 0.0422913
vn -0.9965103 0.0120384 0.0825974
vt 0.8735369 2.3825130
v -1.1249990 -1.7923770 0.1580265
vn -0.9965444 0.0127057 0.0820846
vt 0.9819270 2.3987181
v -1.1347400 1.8053250 0.0407893
vn -0.9964403 -0.0092815 0.0837890
vt 0.8735369 5.5000000
v -1.1249990 1.8031631 0.1563944
vn -0.9964923 -0.0110001 0.0829582
vt 0.9819270 5.5000000
v -1.1347400 1.8053250 0.0407893
vn -0.9964403 -0.0092815 0.0837890
vt 0.8735369 -4.4999952
v -1.1249990 1.8031631 0.1563944
vn -0.9964923 -0.0110001 0.0829582
vt 0.9819270 -4.4837122
v -1.1347400 -2.6023600 0.8960803
vn -0.9966345 0.0073726 -0.0816419
vt 0.8735369 1.2659100
v -1.1347400 -2.4502730 0.9098157
vn -0.9963241 0.0057389 -0.0854714
vt 0.8735369 1.1599370
v -1.1249990 -2.5428910 0.7825404
vn -0.9964782 0.0096597 -0.0832943
vt 0.9819270 1.2497410
v -1.1249990 -2.4355209 0.7986598
vn -0.9962150 0.0067704 -0.0866599
vt 0.9819270 1.1462460
v -1.1347400 -2.5984800 0.2844001
vn -0.9970837 0.0234348 0.0726283
vt 0.8735369 1.7263210
v -1.1249990 -2.5579340 0.4065839
vn -0.9971495 0.0233001 0.0717644
vt 0.9819270 1.7225530
v -1.1347400 2.5200689 0.9691598
vn -0.9961504 0.0010576 -0.0876537
vt 0.8735369 -3.3273029
v -1.1249990 2.5236940 0.8591304
vn -0.9961504 0.0010576 -0.0876537
vt 0.9819270 -3.3331938
v -1.1152570 2.5200689 0.9691596
vn 0.9961504 0.0010576 -0.0876543
vt 0.8735369 -3.3272963
v -1.1152580 -2.4502721 0.9098157
vn 0.9963241 0.0057395 -0.0854716
vt 0.8735520 1.1599360
v -1.1249990 -2.4355209 0.7986598
vn 0.9962150 0.0067703 -0.0866597
vt 0.9819270 1.1462460
v -1.1249990 2.5236940 0.8591304
vn 0.9961504 0.0010576 -0.0876543
vt 0.9819270 -3.3331938
v -1.1152580 2.6726010 0.4652094
vn 0.9932554 -0.0614330 0.0983351
vt 0.8735369 -3.7091217
v -1.1249990 2.6156199 0.5280050
vn 0.9950281 -0.0427108 0.0899721
vt 0.9819270 -3.7022457
v -1.1152570 2.5533750 0.3907233
vn 0.9962102 -0.0372947 0.0785772
vt 0.8735369 -3.8151531
v -1.1249990 2.5051770 0.5016547
vn 0.9967660 -0.0287320 0.0750472
vt 0.9819270 -3.8006530
v -1.1152570 1.9685440 0.0797398
vn 0.9966306 -0.0300515 0.0763182
vt 0.8735369 -4.3678288
v -1.1249990 1.9158469 0.1871928
vn 0.9966832 -0.0295577 0.0758214
vt 0.9819270 -4.3690610
v -1.1152570 -1.8046610 0.0422913
vn 0.9965103 0.0120384 0.0825975
vt 0.8735369 2.3825130
v -1.1152570 1.8053260 0.0407893
vn 0.9964403 -0.0092815 0.0837890
vt 0.8735369 5.5000000
v -1.1249990 -1.7923770 0.1580265
vn 0.9965444 0.0127057 0.0820846
vt 0.9819270 2.3987181
v -1.1249990 1.8031631 0.1563944
vn 0.9964923 -0.0110001 0.0829582
vt 0.9819270 5.5000000
v -1.1152570 1.8053260 0.0407893
vn 0.9964403 -0.0092815 0.0837890
vt 0.8735369 -4.5000000
v -1.1249990 1.8031631 0.1563944
vn 0.9964923 -0.0110001 0.0829582
vt 0.9819270 -4.4837122
v -1.1249990 -2.5428910 0.7825404
vn 0.9964782 0.0096610 -0.0832944
vt 0.9819270 1.2497410
v -1.1152580 -2.6023600 0.8960803
vn 0.9966344 0.0073749 -0.0816427
vt 0.8735369 1.2658859
v -1.1249990 -2.5579340 0.4065839
vn 0.9971495 0.0233001 0.0717643
vt 0.9819270 1.7225530
v -1.1152580 -2.5984800 0.2844001
vn 0.9970837 0.0234348 0.0726283
vt 0.8735369 1.7263370

g group_76_106652632045824
f 1/1/1 2/2/2 3/3/3 
f 2/2/2 4/4/4 3/3/3 
f 3/3/3 4/4/4 5/5/5 
f 4/4/4 6/6/6 5/5/5 
f 7/7/7 8/8/8 9/9/9 
f 8/8/8 10/10/10 9/9/9 
f 9/9/9 10/10/10 11/11/11 
f 10/10/10 12/12/12 11/11/11 
f 11/11/11 12/12/12 13/13/13 
f 12/12/12 14/14/14 13/13/13 
f 13/13/13 14/14/14 1/1/1 
f 14/14/14 2/2/2 1/1/1 
f 15/15/15 8/8/8 16/16/16 
f 8/8/8 7/7/7 16/16/16 
f 17/17/17 18/18/18 19/19/19 
f 18/18/18 20/20/20 19/19/19 
f 15/15/15 16/16/16 21/21/21 
f 16/16/16 22/22/22 21/21/21 
f 23/23/23 24/24/24 25/25/25 
f 24/24/24 26/26/26 25/25/25 
f 27/27/27 23/23/23 28/28/28 
f 23/23/23 25/25/25 28/28/28 
f 29/29/29 27/27/27 30/30/30 
f 27/27/27 28/28/28 30/30/30 
f 31/31/31 32/32/32 33/33/33 
f 32/32/32 34/34/34 33/33/33 
f 35/35/35 31/31/31 36/36/36 
f 31/31/31 33/33/33 36/36/36 
f 37/37/37 35/35/35 38/38/38 
f 35/35/35 36/36/36 38/38/38 
f 24/24/24 37/37/37 26/26/26 
f 37/37/37 38/38/38 26/26/26 
f 39/39/39 40/40/40 41/41/41 
f 40/40/40 42/42/42 41/41/41 
f 43/43/43 39/39/39 44/44/44 
f 39/39/39 41/41/41 44/44/44 
f 45/45/45 46/46/46 47/47/47 
f 46/46/46 48/48/48 47/47/47 
f 49/49/49 47/47/47 50/50/50 
f 47/47/47 48/48/48 50/50/50 
f 51/51/51 49/49/49 52/52/52 
f 49/49/49 50/50/50 52/52/52 
f 53/53/53 51/51/51 54/54/54 
f 51/51/51 52/52/52 54/54/54 
f 40/40/40 53/53/53 42/42/42 
f 53/53/53 54/54/54 42/42/42 
f 45/45/45 55/55/55 46/46/46 
f 55/55/55 56/56/56 46/46/46 
f 57/57/57 58/58/58 59/59/59 
f 58/58/58 60/60/60 59/59/59 
f 58/58/58 61/61/61 60/60/60 
f 61/61/61 62/62/62 60/60/60 
f 61/61/61 63/63/63 62/62/62 
f 63/63/63 64/64/64 62/62/62 
f 65/65/65 66/66/66 67/67/67 
f 66/66/66 68/68/68 67/67/67 
f 66/66/66 69/69/69 68/68/68 
f 69/69/69 70/70/70 68/68/68 
f 69/69/69 71/71/71 70/70/70 
f 71/71/71 72/72/72 70/70/70 
f 71/71/71 57/57/57 72/72/72 
f 57/57/57 59/59/59 72/72/72 
f 73/73/73 74/74/74 75/75/75 
f 74/74/74 76/76/76 75/75/75 
f 77/77/77 78/78/78 79/79/79 
f 78/78/78 80/80/80 79/79/79 
f 81/81/81 82/82/82 83/83/83 
f 82/82/82 84/84/84 83/83/83 
f 85/85/85 86/86/86 84/84/84 
f 86/86/86 83/83/83 84/84/84 
f 87/87/87 88/88/88 89/89/89 
f 88/88/88 90/90/90 89/89/89 
f 86/86/86 85/85/85 91/91/91 
f 85/85/85 92/92/92 91/91/91 
f 88/88/88 93/93/93 90/90/90 
f 93/93/93 94/94/94 90/90/90 
f 91/91/91 92/92/92 95/95/95 
f 92/92/92 96/96/96 95/95/95 
f 75/75/75 76/76/76 93/93/93 
f 76/76/76 94/94/94 93/93/93 
f 78/78/78 95/95/95 80/80/80 
f 95/95/95 96/96/96 80/80/80 
f 97/97/97 87/87/87 98/98/98 
f 87/87/87 89/89/89 98/98/98 
f 99/99/99 97/97/97 100/100/100 
f 97/97/97 98/98/98 100/100/100 
f 101/101/101 102/102/102 103/103/103 
f 102/102/102 104/104/104 103/103/103 
f 105/105/105 106/106/106 107/107/107 
f 106/106/106 108/108/108 107/107/107 
f 109/109/109 99/99/99 110/110/110 
f 99/99/99 100/100/100 110/110/110 
f 111/111/111 112/112/112 81/81/81 
f 112/112/112 82/82/82 81/81/81 
f 113/113/113 114/114/114 115/115/115 
f 114/114/114 116/116/116 115/115/115 
f 117/117/117 118/118/118 119/119/119 
f 118/118/118 120/120/120 119/119/119 
f 121/121/121 122/122/122 113/113/113 
f 122/122/122 114/114/114 113/113/113 
f 123/123/123 117/117/117 124/124/124 
f 117/117/117 119/119/119 124/124/124 
f 122/122/122 121/121/121 125/125/125 
f 121/121/121 126/126/126 125/125/125 
f 127/127/127 128/128/128 129/129/129 
f 127/127/127 129/129/129 130/130/130 
f 107/107/107 108/108/108 131/131/131 
f 108/108/108 132/132/132 131/131/131 
f 133/133/133 134/134/134 132/132/132 
f 134/134/134 131/131/131 132/132/132 
f 135/135/135 136/136/136 137/137/137 
f 136/136/136 138/138/138 137/137/137 
f 134/134/134 133/133/133 139/139/139 
f 133/133/133 140/140/140 139/139/139 
f 141/141/141 142/142/142 136/136/136 
f 142/142/142 138/138/138 136/136/136 
f 143/143/143 139/139/139 144/144/144 
f 139/139/139 140/140/140 144/144/144 
f 115/115/115 116/116/116 141/141/141 
f 116/116/116 142/142/142 141/141/141 
f 118/118/118 143/143/143 120/120/120 
f 143/143/143 144/144/144 120/120/120 
f 32/32/32 17/17/17 34/34/34 
f 17/17/17 19/19/19 34/34/34 
f 145/145/145 146/146/146 147/147/147 
f 146/146/146 148/148/148 147/147/147 
f 67/67/67 148/148/148 65/65/65 
f 148/148/148 146/146/146 65/65/65 
f 149/149/149 135/135/135 150/150/150 
f 135/135/135 137/137/137 150/150/150 
f 101/101/101 149/149/149 102/102/102 
f 149/149/149 150/150/150 102/102/102 
f 63/63/63 43/43/43 44/44/44 
f 63/63/63 44/44/44 64/64/64 
f 74/74/74 73/73/73 130/130/130 
f 73/73/73 127/127/127 130/130/130 
f 151/151/151 77/77/77 152/152/152 
f 77/77/77 79/79/79 152/152/152 
f 29/29/29 30/30/30 5/5/5 
f 29/29/29 5/5/5 6/6/6 
f 125/125/125 126/126/126 151/151/151 
f 125/125/125 151/151/151 152/152/152 
f 128/128/128 123/123/123 129/129/129 
f 123/123/123 124/124/124 129/129/129 
f 153/153/153 154/154/154 155/155/155 
f 154/154/154 156/156/156 155/155/155 
f 157/157/157 158/158/158 155/155/155 
f 158/158/158 153/153/153 155/155/155 
f 159/159/159 160/160/160 161/161/161 
f 160/160/160 162/162/162 161/161/161 
f 163/163/163 164/164/164 157/157/157 
f 164/164/164 158/158/158 157/157/157 
f 165/165/165 166/166/166 167/167/167 
f 166/166/166 168/168/168 167/167/167 
f 159/159/159 169/169/169 160/160/160 
f 169/169/169 170/170/170 160/160/160 
f 166/166/166 171/171/171 172/172/172 
f 166/166/166 172/172/172 168/168/168 
f 173/173/173 174/174/174 175/175/175 
f 173/173/173 175/175/175 176/176/176 
f 177/177/177 178/178/178 179/179/179 
f 178/178/178 180/180/180 179/179/179 
f 181/181/181 179/179/179 182/182/182 
f 179/179/179 180/180/180 182/182/182 
f 183/183/183 184/184/184 185/185/185 
f 184/184/184 186/186/186 185/185/185 
f 187/187/187 181/181/181 188/188/188 
f 181/181/181 182/182/182 188/188/188 
f 175/175/175 174/174/174 189/189/189 
f 174/174/174 190/190/190 189/189/189 
f 191/191/191 192/192/192 185/185/185 
f 192/192/192 183/183/183 185/185/185 
