v -0.9513913 -1.4593500 0.7909186
vn 0.0000000 0.6254367 0.7802750
vt 0.2713460 0.5614100
v -1.2960100 -1.4593500 0.7909186
vn 0.0000000 0.6254368 0.7802748
vt 0.2713460 0.6083160
v -1.2960100 -1.6294680 0.8733660
vn 0.0000000 0.2249514 0.9743700
vt 0.2959780 0.6083211
v -0.9513913 -1.6294680 0.8733659
vn 0.0000000 0.2249510 0.9743701
vt 0.2959780 0.5614160
v -1.2960100 -1.3418519 0.6428248
vn 0.0000000 0.9020477 0.4316365
vt 0.3456010 0.6083010
v -1.2960100 -1.4593500 0.7909186
vn 0.0000000 0.6254368 0.7802748
vt 0.3705170 0.6083100
v -0.9513913 -1.4593500 0.7909186
vn 0.0000000 0.6254367 0.7802750
vt 0.3705170 0.5614050
v -0.9513913 -1.3418519 0.6428248
vn 0.0000000 0.9020478 0.4316362
vt 0.3456010 0.5613950
v -0.9513913 -1.3002460 0.4584160
vn 0.0000000 0.9999969 -0.0024932
vt 0.3207760 0.5613870
v -1.2960100 -1.3002460 0.4584161
vn 0.0000000 0.9999969 -0.0024932
vt 0.3207760 0.6082930
v -1.2960100 -1.3427711 0.2742175
vn 0.0000000 0.8998841 -0.4361292
vt 0.2960460 0.6082870
v -0.9513913 -1.3427711 0.2742174
vn 0.0000000 0.8998840 -0.4361292
vt 0.2960460 0.5613810
v -0.9513913 -1.4610070 0.1267113
vn 0.0000000 0.6215383 -0.7833838
vt 0.2714140 0.5613760
v -1.2960100 -1.4610070 0.1267113
vn 0.0000000 0.6215385 -0.7833837
vt 0.2714140 0.6082820
v -1.2960100 -1.4610070 0.1267113
vn 0.0000000 0.6215385 -0.7833837
vt 0.3455970 0.6083330
v -0.9513913 -1.4610070 0.1267113
vn 0.0000000 0.6215383 -0.7833838
vt 0.3455970 0.5614280
v -0.9513913 -1.6315330 0.0451132
vn 0.0000000 0.2200896 -0.9754797
vt 0.3207720 0.5614200
v -1.2960100 -1.6315330 0.0451132
vn 0.0000000 0.2200896 -0.9754797
vt 0.3207720 0.6083250
v -0.9513913 -1.8205760 0.0455845
vn 0.0000000 -0.2249508 -0.9743701
vt 0.2960410 0.5614140
v -1.2960100 -1.8205760 0.0455845
vn 0.0000000 -0.2249508 -0.9743701
vt 0.2960410 0.6083180
v -0.9513913 -1.9906940 0.1280318
vn 0.0000000 -0.6254371 -0.7802747
vt 0.2714100 0.5614090
v -1.2960100 -1.9906940 0.1280318
vn 0.0000000 -0.6254365 -0.7802750
vt 0.2714100 0.6083130
v -0.9513913 -2.1081920 0.2761257
vn 0.0000000 -0.9020478 -0.4316361
vt 0.3455660 0.5614420
v -1.2960100 -2.1081920 0.2761256
vn 0.0000000 -0.9020478 -0.4316362
vt 0.3455660 0.6083470
v -1.2960100 -1.9906940 0.1280318
vn 0.0000000 -0.6254365 -0.7802750
vt 0.3704820 0.6083560
v -0.9513913 -1.9906940 0.1280318
vn 0.0000000 -0.6254371 -0.7802747
vt 0.3704820 0.5614510
v -0.9513913 -2.1497991 0.4605344
vn 0.0000000 -0.9999969 0.0024923
vt 0.3207410 0.5614340
v -1.2960100 -2.1497991 0.4605344
vn 0.0000000 -0.9999969 0.0024928
vt 0.3207410 0.6083390
v -0.9513913 -2.1072731 0.6447331
vn 0.0000000 -0.8998846 0.4361280
vt 0.2960110 0.5614270
v -1.2960100 -2.1072731 0.6447331
vn 0.0000000 -0.8998846 0.4361281
vt 0.2960110 0.6083320
v -1.2960100 -1.9890380 0.7922393
vn 0.0000000 -0.6215385 0.7833836
vt 0.2713790 0.6083270
v -0.9513913 -1.9890380 0.7922395
vn 0.0000000 -0.6215380 0.7833840
vt 0.2713790 0.5614220
v -1.2960100 -1.9890380 0.7922393
vn 0.0000000 -0.6215385 0.7833836
vt 0.3455330 0.6083350
v -0.9513913 -1.9890380 0.7922395
vn 0.0000000 -0.6215380 0.7833840
vt 0.3455330 0.5614300
v -0.9513913 -1.8185110 0.8738374
vn 0.0000000 -0.2200887 0.9754799
vt 0.3207080 0.5614220
v -1.2960100 -1.8185110 0.8738376
vn 0.0000000 -0.2200891 0.9754798
vt 0.3207080 0.6083270
v -1.1671450 -2.0914991 0.6416784
vn -1.0000000 0.0000000 0.0000000
vt 0.1602840 0.7845500
v -1.1671450 -1.8147610 0.8612434
vn -1.0000000 0.0000000 0.0000000
vt 0.1979030 0.8145260
v -1.1671450 -1.4705540 0.7817771
vn -1.0000000 0.0000000 0.0000000
vt 0.2448790 0.8036940
v -1.1671450 -1.3180740 0.4631194
vn -1.0000000 0.0000000 0.0000000
vt 0.2657480 0.7601740
v -1.1671450 -1.4721420 0.1452259
vn -1.0000000 0.0000000 0.0000000
vt 0.2446620 0.7166860
v -1.1671450 -1.8167400 0.0674772
vn -1.0000000 0.0000000 0.0000000
vt 0.1976330 0.7060340
v -1.1671450 -2.0923800 0.2884189
vn -1.0000000 0.0000000 0.0000000
vt 0.1601650 0.7362610
v -1.2960100 -1.6294680 0.8733660
vn -1.0000000 0.0000000 0.0000000
vt 0.1531670 0.7734620
v -1.2960100 -1.6529670 0.7715828
vn -1.0000000 0.0000000 0.0000000
vt 0.1671500 0.7702481
v -1.2960100 -1.7955210 0.7719384
vn -1.0000000 0.0000000 0.0000000
vt 0.1671010 0.7507610
v -1.2960100 -1.8185110 0.8738376
vn -1.0000000 0.0000000 0.0000000
vt 0.1531020 0.7476210
v -1.2960100 -1.9241120 0.7104067
vn -1.0000000 0.0000000 0.0000000
vt 0.1755410 0.7331710
v -1.2960100 -1.9890380 0.7922393
vn -1.0000000 0.0000000 0.0000000
vt 0.1643150 0.7242901
v -1.2960100 -2.0132711 0.5991749
vn -1.0000000 0.0000000 0.0000000
vt 0.1907700 0.7209680
v -1.2960100 -2.1072731 0.6447331
vn -1.0000000 0.0000000 0.0000000
vt 0.1845370 0.7081050
v -1.2960100 -2.1497991 0.4605344
vn -1.0000000 0.0000000 0.0000000
vt 0.2097020 0.7022780
v -1.2960100 -2.0453391 0.4602739
vn -1.0000000 0.0000000 0.0000000
vt 0.2097370 0.7165760
v -1.2960100 -2.0139639 0.3212147
vn -1.0000000 0.0000000 0.0000000
vt 0.2286680 0.7208650
v -1.2960100 -2.1081920 0.2761256
vn -1.0000000 0.0000000 0.0000000
vt 0.2347940 0.7079680
v -1.2960100 -1.9253610 0.2095399
vn -1.0000000 0.0000000 0.0000000
vt 0.2438280 0.7329860
v -1.2960100 -1.9906940 0.1280318
vn -1.0000000 0.0000000 0.0000000
vt 0.2548680 0.7240450
v -1.2960100 -1.7970780 0.1473677
vn -1.0000000 0.0000000 0.0000000
vt 0.2522510 0.7505300
v -1.2960100 -1.8205760 0.0455845
vn -1.0000000 0.0000000 0.0000000
vt 0.2660140 0.7473150
v -1.2960100 -1.6545240 0.1470123
vn -1.0000000 0.0000000 0.0000000
vt 0.2522990 0.7700170
v -1.2960100 -1.6315330 0.0451132
vn -1.0000000 0.0000000 0.0000000
vt 0.2660780 0.7731570
v -1.2960100 -1.5259330 0.2085441
vn -1.0000000 0.0000000 0.0000000
vt 0.2439630 0.7875850
v -1.2960100 -1.4610070 0.1267113
vn -1.0000000 0.0000000 0.0000000
vt 0.2550470 0.7964480
v -1.2960100 -1.3427711 0.2742175
vn -1.0000000 0.0000000 0.0000000
vt 0.2350530 0.8125870
v -1.2960100 -1.4367740 0.3197757
vn -1.0000000 0.0000000 0.0000000
vt 0.2288640 0.7997610
v -1.2960100 -1.4047060 0.4586767
vn -1.0000000 0.0000000 0.0000000
vt 0.2099550 0.8041410
v -1.2960100 -1.3002460 0.4584161
vn -1.0000000 0.0000000 0.0000000
vt 0.2099900 0.8183920
v -1.2960100 -1.4360811 0.5977356
vn -1.0000000 0.0000000 0.0000000
vt 0.1909670 0.7998630
v -1.2960100 -1.3418519 0.6428248
vn -1.0000000 0.0000000 0.0000000
vt 0.1847980 0.8127230
v -1.2960100 -1.4593500 0.7909186
vn -1.0000000 0.0000000 0.0000000
vt 0.1644960 0.7966930
v -1.2960100 -1.5246840 0.7094106
vn -1.0000000 0.0000000 0.0000000
vt 0.1756780 0.7877700
v -1.2960100 -1.5246840 0.7094106
vn 0.0000000 -0.6254377 -0.7802742
vt 0.2214440 0.9271210
v -0.9730688 -1.5246840 0.7094106
vn 0.0000000 -0.6254377 -0.7802741
vt 0.1744920 0.9271120
v -0.9730688 -1.6529670 0.7715828
vn 0.0000000 -0.2249504 -0.9743702
vt 0.1744920 0.9464950
v -1.2960100 -1.6529670 0.7715828
vn 0.0000000 -0.2249513 -0.9743700
vt 0.2214440 0.9465040
v -0.9730688 -1.5246840 0.7094106
vn 0.0000000 -0.6254377 -0.7802741
vt 0.1744920 0.9853620
v -1.2960100 -1.5246840 0.7094106
vn 0.0000000 -0.6254377 -0.7802742
vt 0.2214220 0.9853720
v -1.2960100 -1.4360811 0.5977356
vn 0.0000000 -0.9020478 -0.4316361
vt 0.2214220 0.9659430
v -0.9730688 -1.4360811 0.5977356
vn 0.0000000 -0.9020477 -0.4316365
vt 0.1744920 0.9659340
v -1.2960100 -1.4047060 0.4586767
vn 0.0000000 -0.9999969 0.0024923
vt 0.2214220 0.9465360
v -0.9730688 -1.4047060 0.4586767
vn 0.0000000 -0.9999969 0.0024923
vt 0.1744920 0.9465270
v -1.2960100 -1.4367740 0.3197757
vn 0.0000000 -0.8998843 0.4361288
vt 0.2214220 0.9271530
v -0.9730688 -1.4367740 0.3197757
vn 0.0000000 -0.8998840 0.4361292
vt 0.1744920 0.9271430
v -1.2960100 -1.5259330 0.2085441
vn 0.0000000 -0.6215383 0.7833838
vt 0.2214220 0.9077950
v -0.9730688 -1.5259330 0.2085439
vn 0.0000000 -0.6215383 0.7833838
vt 0.1744920 0.9077860
v -0.9730688 -1.5259330 0.2085439
vn 0.0000000 -0.6215383 0.7833838
vt 0.1744920 0.9853810
v -1.2960100 -1.5259330 0.2085441
vn 0.0000000 -0.6215383 0.7833838
vt 0.2214520 0.9853910
v -1.2960100 -1.6545240 0.1470123
vn 0.0000000 -0.2200891 0.9754798
vt 0.2214520 0.9659630
v -0.9730688 -1.6545240 0.1470122
vn 0.0000000 -0.2200888 0.9754799
vt 0.1744920 0.9659530
v -0.9730688 -1.7970780 0.1473678
vn 0.0000000 0.2249513 0.9743700
vt 0.1744920 0.9465460
v -1.2960100 -1.7970780 0.1473677
vn 0.0000000 0.2249508 0.9743701
vt 0.2214520 0.9465550
v -1.2960100 -1.9253610 0.2095399
vn 0.0000000 0.6254372 0.7802745
vt 0.2214520 0.9271720
v -0.9730688 -1.9253600 0.2095399
vn 0.0000000 0.6254370 0.7802747
vt 0.1744920 0.9271630
v -0.9730688 -1.9253600 0.2095399
vn 0.0000000 0.6254370 0.7802747
vt 0.1744920 0.9854010
v -1.2960100 -1.9253610 0.2095399
vn 0.0000000 0.6254372 0.7802745
vt 0.2214300 0.9854110
v -1.2960100 -2.0139639 0.3212147
vn 0.0000000 0.9020477 0.4316365
vt 0.2214310 0.9659821
v -0.9730688 -2.0139639 0.3212148
vn 0.0000000 0.9020479 0.4316361
vt 0.1744920 0.9659731
v -1.2960100 -2.0453391 0.4602739
vn 0.0000000 0.9999969 -0.0024934
vt 0.2214300 0.9465750
v -0.9730688 -2.0453379 0.4602740
vn 0.0000000 0.9999969 -0.0024936
vt 0.1744920 0.9465660
v -1.2960100 -2.0132711 0.5991749
vn 0.0000000 0.8998840 -0.4361293
vt 0.2214300 0.9271920
v -0.9730688 -2.0132711 0.5991749
vn 0.0000000 0.8998843 -0.4361287
vt 0.1744920 0.9271821
v -1.2960100 -1.9241120 0.7104067
vn 0.0000000 0.6215386 -0.7833835
vt 0.2214300 0.9078350
v -0.9730688 -1.9241120 0.7104067
vn 0.0000000 0.6215379 -0.7833841
vt 0.1744920 0.9078250
v -1.2960100 -1.7955210 0.7719384
vn 0.0000000 0.2200889 -0.9754798
vt 0.2214440 0.9659110
v -0.9730688 -1.7955199 0.7719381
vn 0.0000000 0.2200883 -0.9754800
vt 0.1744920 0.9659020
v -0.9730688 -1.9241120 0.7104067
vn 0.0000000 0.6215379 -0.7833841
vt 0.1744920 0.9853300
v -1.2960100 -1.9241120 0.7104067
vn 0.0000000 0.6215386 -0.7833835
vt 0.2214440 0.9853400
v -0.9513913 -1.6294680 0.8733659
vn 1.0000000 0.0000000 0.0000000
vt 0.1799020 0.5838830
v -0.9513913 -1.8205760 0.0455845
vn 1.0000000 0.0000000 0.0000000
vt 0.0652770 0.5577360
v -0.9513913 -1.4593500 0.7909186
vn 1.0000000 0.0000000 0.0000000
vt 0.1684340 0.6071140
v -0.9513913 -1.3418519 0.6428248
vn 1.0000000 0.0000000 0.0000000
vt 0.1478620 0.6231440
v -0.9513913 -1.3002460 0.4584160
vn 1.0000000 0.0000000 0.0000000
vt 0.1222940 0.6288130
v -0.9513913 -1.3427711 0.2742174
vn 1.0000000 0.0000000 0.0000000
vt 0.0968140 0.6230080
v -0.9513913 -1.4610070 0.1267113
vn 1.0000000 0.0000000 0.0000000
vt 0.0764560 0.6068690
v -0.9513913 -1.6315330 0.0451132
vn 1.0000000 0.0000000 0.0000000
vt 0.0652120 0.5835770
v -0.9513913 -1.9906940 0.1280318
vn 1.0000000 0.0000000 0.0000000
vt 0.0766380 0.5344650
v -0.9513913 -2.1081920 0.2761257
vn 1.0000000 0.0000000 0.0000000
vt 0.0970780 0.5183890
v -0.9513913 -2.1497991 0.4605344
vn 1.0000000 0.0000000 0.0000000
vt 0.1225870 0.5126980
v -0.9513913 -2.1072731 0.6447331
vn 1.0000000 0.0000000 0.0000000
vt 0.1481270 0.5185250
v -0.9513913 -1.9890380 0.7922395
vn 1.0000000 0.0000000 0.0000000
vt 0.1686180 0.5347110
v -0.9513913 -1.8185110 0.8738374
vn 1.0000000 0.0000000 0.0000000
vt 0.1799670 0.5580420
v -1.1849790 -1.6340981 0.5303761
vn 0.1539251 0.7845897 0.6006048
vt 0.5453420 0.8699740
v -1.1849800 -1.6908880 0.5716358
vn 0.3147474 0.2396174 0.9184321
vt 0.5453420 0.8796770
v -0.9851326 -1.6428730 0.4906211
vn 0.2775522 0.9136899 0.2968764
vt 0.5480750 0.8796774
v -1.1849790 -1.6124070 0.4636163
vn 0.1539246 0.9877732 -0.0247268
vt 0.5453420 0.8796780
v -1.1849790 -1.6340981 0.5303761
vn 0.1539251 0.7845897 0.6006048
vt 0.5453420 0.8893830
v -1.1849790 -1.6340981 0.3968563
vn 0.3147478 0.7336966 -0.6021820
vt 0.5453420 0.8699760
v -1.1849790 -1.6908880 0.3555964
vn 0.1765518 0.4090468 -0.8952710
vt 0.5453421 0.8893721
v -1.1849790 -1.6340981 0.3968563
vn 0.3147478 0.7336966 -0.6021820
vt 0.5453420 0.8990790
v -0.9851326 -1.6428730 0.4906211
vn 0.2775522 0.9136899 0.2968764
vt 0.5480750 0.8990790
v -0.9851326 -1.7259860 0.3555964
vn 0.1568735 0.1759104 -0.9718263
vt 0.5480750 0.8893720
v -1.1849790 -1.7610830 0.3555964
vn 0.0594788 -0.3386758 -0.9390213
vt 0.5453420 0.8796670
v -1.1849800 -1.8178720 0.3968563
vn 0.0594781 -0.7884056 -0.6122736
vt 0.5453420 0.8699640
v -0.9851326 -1.7259860 0.3555964
vn 0.1568735 0.1759104 -0.9718263
vt 0.5480750 0.8796670
v -0.9851326 -1.8287190 0.4302363
vn 0.1101787 -0.9452663 -0.3071357
vt 0.5480750 0.8699640
v -1.1849800 -1.8395640 0.4636162
vn 0.0594785 -0.9977189 0.0319259
vt 0.5453420 0.8796680
v -1.1849800 -1.8178720 0.3968563
vn 0.0594781 -0.7884056 -0.6122736
vt 0.5453420 0.8893730
v -0.9851326 -1.8287190 0.4302363
vn 0.1101787 -0.9452663 -0.3071357
vt 0.5480750 0.8893730
v -1.1849800 -1.8178720 0.5303761
vn 0.0594781 -0.8259366 0.5606167
vt 0.5453420 0.8699650
v -0.9851326 -1.8287190 0.4302363
vn 0.1101787 -0.9452663 -0.3071357
vt 0.5480750 0.8796680
v -0.9851326 -1.7894779 0.5510060
vn 0.1568726 -0.4289111 0.8896214
vt 0.5480750 0.8699650
v -1.1849800 -1.7610830 0.5716358
vn 0.1765508 -0.1953014 0.9647213
vt 0.5453421 0.8893821
v -1.1849800 -1.8178720 0.5303761
vn 0.0594781 -0.8259366 0.5606167
vt 0.5453420 0.8990900
v -0.9851326 -1.7894779 0.5510060
vn 0.1568726 -0.4289111 0.8896214
vt 0.5480750 0.8990900
v -0.9851326 -1.7894779 0.5510060
vn 0.1568726 -0.4289111 0.8896214
vt 0.5480750 0.8893820
v -1.1849800 -1.6908880 0.5716358
vn -1.0000000 0.0000000 0.0000000
vt 0.9596010 0.6235090
v -1.1849790 -1.6340981 0.5303761
vn -1.0000000 0.0000000 0.0000000
vt 0.9669310 0.6336170
v -1.1849790 -1.6124070 0.4636163
vn -1.0000000 0.0000000 0.0000000
vt 0.9788010 0.6374810
v -1.1849790 -1.6340981 0.3968563
vn -1.0000000 0.0000000 0.0000000
vt 0.9906811 0.6336231
v -1.1849800 -1.7610830 0.5716358
vn -1.0000000 0.0000000 0.0000000
vt 0.9596010 0.6110180
v -1.1849800 -1.8178720 0.5303761
vn -1.0000000 0.0000000 0.0000000
vt 0.9669310 0.6009180
v -1.1849790 -1.6908880 0.3555964
vn -1.0000000 0.0000000 0.0000000
vt 0.9980300 0.6235190
v -1.1849790 -1.7610830 0.3555964
vn -1.0000000 0.0000000 0.0000000
vt 0.9980300 0.6110280
v -1.1849800 -1.8178720 0.3968563
vn -1.0000000 0.0000000 0.0000000
vt 0.9906811 0.6009230
v -1.1849800 -1.8395640 0.4636162
vn -1.0000000 0.0000000 0.0000000
vt 0.9788010 0.5970620

g group_182_106652632062976
f 1/1/1 2/2/2 3/3/3 
f 3/3/3 4/4/4 1/1/1 
f 5/5/5 6/6/6 7/7/7 
f 7/7/7 8/8/8 5/5/5 
f 8/8/8 9/9/9 10/10/10 
f 10/10/10 5/5/5 8/8/8 
f 11/11/11 10/10/10 9/9/9 
f 9/9/9 12/12/12 11/11/11 
f 11/11/11 12/12/12 13/13/13 
f 13/13/13 14/14/14 11/11/11 
f 15/15/15 16/16/16 17/17/17 
f 17/17/17 18/18/18 15/15/15 
f 17/17/17 19/19/19 20/20/20 
f 20/20/20 18/18/18 17/17/17 
f 19/19/19 21/21/21 22/22/22 
f 22/22/22 20/20/20 19/19/19 
f 23/23/23 24/24/24 25/25/25 
f 25/25/25 26/26/26 23/23/23 
f 23/23/23 27/27/27 28/28/28 
f 28/28/28 24/24/24 23/23/23 
f 27/27/27 29/29/29 30/30/30 
f 30/30/30 28/28/28 27/27/27 
f 31/31/31 30/30/30 29/29/29 
f 29/29/29 32/32/32 31/31/31 
f 33/33/33 34/34/34 35/35/35 
f 35/35/35 36/36/36 33/33/33 
f 36/36/36 35/35/35 4/4/4 
f 4/4/4 3/3/3 36/36/36 
f 37/37/37 38/38/38 39/39/39 
f 39/39/39 40/40/40 41/41/41 
f 37/37/37 39/39/39 41/41/41 
f 37/37/37 41/41/41 42/42/42 
f 37/37/37 42/42/42 43/43/43 
f 44/44/44 45/45/45 46/46/46 
f 46/46/46 47/47/47 44/44/44 
f 48/48/48 49/49/49 47/47/47 
f 47/47/47 46/46/46 48/48/48 
f 49/49/49 48/48/48 50/50/50 
f 50/50/50 51/51/51 49/49/49 
f 52/52/52 51/51/51 50/50/50 
f 50/50/50 53/53/53 52/52/52 
f 54/54/54 55/55/55 52/52/52 
f 52/52/52 53/53/53 54/54/54 
f 55/55/55 54/54/54 56/56/56 
f 56/56/56 57/57/57 55/55/55 
f 57/57/57 56/56/56 58/58/58 
f 58/58/58 59/59/59 57/57/57 
f 60/60/60 61/61/61 59/59/59 
f 59/59/59 58/58/58 60/60/60 
f 60/60/60 62/62/62 63/63/63 
f 63/63/63 61/61/61 60/60/60 
f 64/64/64 63/63/63 62/62/62 
f 62/62/62 65/65/65 64/64/64 
f 65/65/65 66/66/66 67/67/67 
f 67/67/67 64/64/64 65/65/65 
f 66/66/66 68/68/68 69/69/69 
f 69/69/69 67/67/67 66/66/66 
f 70/70/70 69/69/69 68/68/68 
f 68/68/68 71/71/71 70/70/70 
f 70/70/70 71/71/71 45/45/45 
f 45/45/45 44/44/44 70/70/70 
f 72/72/72 73/73/73 74/74/74 
f 74/74/74 75/75/75 72/72/72 
f 76/76/76 77/77/77 78/78/78 
f 78/78/78 79/79/79 76/76/76 
f 79/79/79 78/78/78 80/80/80 
f 80/80/80 81/81/81 79/79/79 
f 82/82/82 83/83/83 81/81/81 
f 81/81/81 80/80/80 82/82/82 
f 82/82/82 84/84/84 85/85/85 
f 85/85/85 83/83/83 82/82/82 
f 86/86/86 87/87/87 88/88/88 
f 88/88/88 89/89/89 86/86/86 
f 90/90/90 89/89/89 88/88/88 
f 88/88/88 91/91/91 90/90/90 
f 91/91/91 92/92/92 93/93/93 
f 93/93/93 90/90/90 91/91/91 
f 94/94/94 95/95/95 96/96/96 
f 96/96/96 97/97/97 94/94/94 
f 98/98/98 99/99/99 97/97/97 
f 97/97/97 96/96/96 98/98/98 
f 98/98/98 100/100/100 101/101/101 
f 101/101/101 99/99/99 98/98/98 
f 100/100/100 102/102/102 103/103/103 
f 103/103/103 101/101/101 100/100/100 
f 104/104/104 105/105/105 106/106/106 
f 106/106/106 107/107/107 104/104/104 
f 75/75/75 74/74/74 105/105/105 
f 105/105/105 104/104/104 75/75/75 
f 108/108/108 109/109/109 110/110/110 
f 110/110/110 109/109/109 111/111/111 
f 111/111/111 109/109/109 112/112/112 
f 112/112/112 109/109/109 113/113/113 
f 113/113/113 109/109/109 114/114/114 
f 114/114/114 109/109/109 115/115/115 
f 116/116/116 109/109/109 117/117/117 
f 117/117/117 109/109/109 118/118/118 
f 118/118/118 109/109/109 119/119/119 
f 119/119/119 109/109/109 120/120/120 
f 120/120/120 109/109/109 121/121/121 
f 121/121/121 109/109/109 108/108/108 
f 122/122/122 123/123/123 124/124/124 
f 124/124/124 125/125/125 126/126/126 
f 127/127/127 125/125/125 124/124/124 
f 128/128/128 129/129/129 130/130/130 
f 130/130/130 131/131/131 128/128/128 
f 132/132/132 128/128/128 131/131/131 
f 133/133/133 132/132/132 134/134/134 
f 134/134/134 135/135/135 133/133/133 
f 136/136/136 137/137/137 138/138/138 
f 139/139/139 136/136/136 140/140/140 
f 140/140/140 141/141/141 139/139/139 
f 142/142/142 143/143/143 144/144/144 
f 124/124/124 123/123/123 142/142/142 
f 142/142/142 145/145/145 124/124/124 
f 146/146/146 147/147/147 148/148/148 
f 146/146/146 148/148/148 149/149/149 
f 150/150/150 146/146/146 149/149/149 
f 151/151/151 150/150/150 149/149/149 
f 149/149/149 152/152/152 153/153/153 
f 149/149/149 153/153/153 154/154/154 
f 151/151/151 149/149/149 154/154/154 
f 151/151/151 154/154/154 155/155/155 
