v 0.9513830 2.0050609 0.7860978
vn 0.0000000 0.6254365 0.7802750
vt 0.2713460 0.5614100
v 1.2960020 1.8349431 0.8685452
vn 0.0000000 0.2249515 0.9743699
vt 0.2959780 0.6083211
v 1.2960020 2.0050609 0.7860978
vn 0.0000000 0.6254368 0.7802748
vt 0.2713460 0.6083160
v 0.9513830 1.8349431 0.8685451
vn 0.0000000 0.2249510 0.9743701
vt 0.2959780 0.5614160
v 0.9513829 2.1225591 0.6380039
vn 0.0000000 0.9020478 0.4316362
vt 0.3456010 0.5613950
v 1.2960020 2.0050609 0.7860978
vn 0.0000000 0.6254368 0.7802748
vt 0.3705170 0.6083100
v 1.2960020 2.1225591 0.6380039
vn 0.0000000 0.9020477 0.4316365
vt 0.3456010 0.6083010
v 0.9513830 2.0050609 0.7860978
vn 0.0000000 0.6254365 0.7802750
vt 0.3705170 0.5614050
v 0.9513829 2.1641650 0.4535952
vn 0.0000000 0.9999969 -0.0024931
vt 0.3207760 0.5613870
v 1.2960020 2.1641650 0.4535953
vn 0.0000000 0.9999969 -0.0024933
vt 0.3207760 0.6082930
v 0.9513830 2.1216400 0.2693965
vn 0.0000000 0.8998840 -0.4361293
vt 0.2960460 0.5613810
v 1.2960020 2.1216400 0.2693966
vn 0.0000000 0.8998840 -0.4361293
vt 0.2960460 0.6082870
v 0.9513830 2.0034051 0.1218905
vn 0.0000000 0.6215380 -0.7833840
vt 0.2714140 0.5613760
v 1.2960020 2.0034051 0.1218905
vn 0.0000000 0.6215383 -0.7833838
vt 0.2714140 0.6082820
v 1.2960020 1.8328780 0.0402923
vn 0.0000000 0.2200892 -0.9754798
vt 0.3207720 0.6083250
v 0.9513830 2.0034051 0.1218905
vn 0.0000000 0.6215380 -0.7833840
vt 0.3455970 0.5614280
v 1.2960020 2.0034051 0.1218905
vn 0.0000000 0.6215383 -0.7833838
vt 0.3455970 0.6083330
v 0.9513830 1.8328780 0.0402923
vn 0.0000000 0.2200892 -0.9754798
vt 0.3207720 0.5614200
v 0.9513830 1.6438349 0.0407637
vn 0.0000000 -0.2249508 -0.9743701
vt 0.2960410 0.5614140
v 1.2960020 1.6438349 0.0407637
vn 0.0000000 -0.2249508 -0.9743701
vt 0.2960410 0.6083180
v 1.2960020 1.4737170 0.1232110
vn 0.0000000 -0.6254365 -0.7802750
vt 0.2714100 0.6083130
v 0.9513829 1.4737170 0.1232110
vn 0.0000000 -0.6254370 -0.7802747
vt 0.2714100 0.5614090
v 1.2960020 1.4737170 0.1232110
vn 0.0000000 -0.6254365 -0.7802750
vt 0.3704820 0.6083560
v 0.9513830 1.3562191 0.2713049
vn 0.0000000 -0.9020476 -0.4316367
vt 0.3455660 0.5614420
v 0.9513829 1.4737170 0.1232110
vn 0.0000000 -0.6254370 -0.7802747
vt 0.3704820 0.5614510
v 1.2960020 1.3562191 0.2713047
vn 0.0000000 -0.9020476 -0.4316367
vt 0.3455660 0.6083470
v 1.2960020 1.3146120 0.4557135
vn 0.0000000 -0.9999969 0.0024931
vt 0.3207410 0.6083390
v 0.9513830 1.3146120 0.4557135
vn 0.0000000 -0.9999969 0.0024927
vt 0.3207410 0.5614340
v 0.9513829 1.3571380 0.6399122
vn 0.0000000 -0.8998845 0.4361285
vt 0.2960110 0.5614270
v 1.2960020 1.3571380 0.6399122
vn 0.0000000 -0.8998843 0.4361287
vt 0.2960110 0.6083320
v 0.9513829 1.4753730 0.7874186
vn 0.0000000 -0.6215382 0.7833840
vt 0.2713790 0.5614220
v 1.2960020 1.4753730 0.7874185
vn 0.0000000 -0.6215386 0.7833835
vt 0.2713790 0.6083270
v 1.2960020 1.4753730 0.7874185
vn 0.0000000 -0.6215386 0.7833835
vt 0.3455330 0.6083350
v 0.9513830 1.6459000 0.8690165
vn 0.0000000 -0.2200888 0.9754798
vt 0.3207080 0.5614220
v 0.9513829 1.4753730 0.7874186
vn 0.0000000 -0.6215382 0.7833840
vt 0.3455330 0.5614300
v 1.2960020 1.6459000 0.8690169
vn 0.0000000 -0.2200892 0.9754798
vt 0.3207080 0.6083270
v 1.1671370 1.3729120 0.6368575
vn 1.0000000 0.0000000 0.0000000
vt 0.1602840 0.7845500
v 1.1671370 1.9938570 0.7769563
vn 1.0000000 0.0000000 0.0000000
vt 0.2448790 0.8036940
v 1.1671370 1.6496500 0.8564225
vn 1.0000000 0.0000000 0.0000000
vt 0.1979030 0.8145260
v 1.1671370 2.1463370 0.4582986
vn 1.0000000 0.0000000 0.0000000
vt 0.2657480 0.7601740
v 1.1671370 1.9922690 0.1404051
vn 1.0000000 0.0000000 0.0000000
vt 0.2446620 0.7166860
v 1.1671370 1.6476710 0.0626564
vn 1.0000000 0.0000000 0.0000000
vt 0.1976330 0.7060340
v 1.1671370 1.3720310 0.2835981
vn 1.0000000 0.0000000 0.0000000
vt 0.1601650 0.7362610
v 1.2960020 1.8114440 0.7667620
vn 1.0000000 0.0000000 0.0000000
vt 0.1671500 0.7702481
v 1.2960020 1.6459000 0.8690169
vn 1.0000000 0.0000000 0.0000000
vt 0.1531020 0.7476210
v 1.2960020 1.6688900 0.7671176
vn 1.0000000 0.0000000 0.0000000
vt 0.1671010 0.7507610
v 1.2960020 1.8349431 0.8685452
vn 1.0000000 0.0000000 0.0000000
vt 0.1531670 0.7734620
v 1.2960020 1.4753730 0.7874185
vn 1.0000000 0.0000000 0.0000000
vt 0.1643150 0.7242901
v 1.2960020 1.5402991 0.7055858
vn 1.0000000 0.0000000 0.0000000
vt 0.1755410 0.7331710
v 1.2960020 1.3571380 0.6399122
vn 1.0000000 0.0000000 0.0000000
vt 0.1845370 0.7081050
v 1.2960020 1.4511400 0.5943540
vn 1.0000000 0.0000000 0.0000000
vt 0.1907700 0.7209680
v 1.2960020 1.4190720 0.4554531
vn 1.0000000 0.0000000 0.0000000
vt 0.2097370 0.7165760
v 1.2960020 1.3146120 0.4557135
vn 1.0000000 0.0000000 0.0000000
vt 0.2097020 0.7022780
v 1.2960020 1.3562191 0.2713047
vn 1.0000000 0.0000000 0.0000000
vt 0.2347940 0.7079680
v 1.2960020 1.4504470 0.3163939
vn 1.0000000 0.0000000 0.0000000
vt 0.2286680 0.7208650
v 1.2960020 1.5390500 0.2047191
vn 1.0000000 0.0000000 0.0000000
vt 0.2438280 0.7329860
v 1.2960020 1.4737170 0.1232110
vn 1.0000000 0.0000000 0.0000000
vt 0.2548680 0.7240450
v 1.2960020 1.6438349 0.0407637
vn 1.0000000 0.0000000 0.0000000
vt 0.2660140 0.7473150
v 1.2960020 1.6673330 0.1425469
vn 1.0000000 0.0000000 0.0000000
vt 0.2522510 0.7505300
v 1.2960020 1.8328780 0.0402923
vn 1.0000000 0.0000000 0.0000000
vt 0.2660780 0.7731570
v 1.2960020 1.8098871 0.1421915
vn 1.0000000 0.0000000 0.0000000
vt 0.2522990 0.7700170
v 1.2960020 1.9384780 0.2037233
vn 1.0000000 0.0000000 0.0000000
vt 0.2439630 0.7875850
v 1.2960020 2.0034051 0.1218905
vn 1.0000000 0.0000000 0.0000000
vt 0.2550470 0.7964480
v 1.2960020 2.1216400 0.2693966
vn 1.0000000 0.0000000 0.0000000
vt 0.2350530 0.8125870
v 1.2960020 2.0276370 0.3149548
vn 1.0000000 0.0000000 0.0000000
vt 0.2288640 0.7997610
v 1.2960020 2.0597050 0.4538558
vn 1.0000000 0.0000000 0.0000000
vt 0.2099550 0.8041410
v 1.2960020 2.1641650 0.4535953
vn 1.0000000 0.0000000 0.0000000
vt 0.2099900 0.8183920
v 1.2960020 2.0283301 0.5929148
vn 1.0000000 0.0000000 0.0000000
vt 0.1909670 0.7998630
v 1.2960020 2.1225591 0.6380039
vn 1.0000000 0.0000000 0.0000000
vt 0.1847980 0.8127230
v 1.2960020 2.0050609 0.7860978
vn 1.0000000 0.0000000 0.0000000
vt 0.1644960 0.7966930
v 1.2960020 1.9397269 0.7045898
vn 1.0000000 0.0000000 0.0000000
vt 0.1756780 0.7877700
v 0.9730604 1.8114440 0.7667620
vn 0.0000000 -0.2249508 -0.9743701
vt 0.1744920 0.9464950
v 1.2960020 1.9397269 0.7045898
vn 0.0000000 -0.6254377 -0.7802742
vt 0.2214440 0.9271210
v 1.2960020 1.8114440 0.7667620
vn 0.0000000 -0.2249521 -0.9743698
vt 0.2214440 0.9465040
v 0.9730605 1.9397269 0.7045898
vn 0.0000000 -0.6254381 -0.7802738
vt 0.1744920 0.9271120
v 1.2960020 1.9397269 0.7045898
vn 0.0000000 -0.6254377 -0.7802742
vt 0.2214220 0.9853720
v 0.9730604 2.0283301 0.5929148
vn 0.0000000 -0.9020475 -0.4316368
vt 0.1744920 0.9659340
v 1.2960020 2.0283301 0.5929148
vn 0.0000000 -0.9020472 -0.4316375
vt 0.2214220 0.9659430
v 0.9730605 1.9397269 0.7045898
vn 0.0000000 -0.6254381 -0.7802738
vt 0.1744920 0.9853620
v 1.2960020 2.0597050 0.4538558
vn 0.0000000 -0.9999969 0.0024925
vt 0.2214220 0.9465360
v 0.9730605 2.0597050 0.4538558
vn 0.0000000 -0.9999969 0.0024925
vt 0.1744920 0.9465270
v 1.2960020 2.0276370 0.3149548
vn 0.0000000 -0.8998840 0.4361294
vt 0.2214220 0.9271530
v 0.9730605 2.0276370 0.3149548
vn 0.0000000 -0.8998840 0.4361292
vt 0.1744920 0.9271430
v 0.9730604 1.9384780 0.2037231
vn 0.0000000 -0.6215386 0.7833835
vt 0.1744920 0.9077860
v 1.2960020 1.9384780 0.2037233
vn 0.0000000 -0.6215386 0.7833835
vt 0.2214220 0.9077950
v 1.2960020 1.9384780 0.2037233
vn 0.0000000 -0.6215386 0.7833835
vt 0.2214520 0.9853910
v 0.9730605 1.8098871 0.1421914
vn 0.0000000 -0.2200890 0.9754798
vt 0.1744920 0.9659531
v 1.2960020 1.8098871 0.1421915
vn 0.0000000 -0.2200896 0.9754797
vt 0.2214520 0.9659631
v 0.9730604 1.9384780 0.2037231
vn 0.0000000 -0.6215386 0.7833835
vt 0.1744920 0.9853810
v 0.9730604 1.6673330 0.1425470
vn 0.0000000 0.2249512 0.9743701
vt 0.1744920 0.9465460
v 1.2960020 1.6673330 0.1425469
vn 0.0000000 0.2249512 0.9743701
vt 0.2214520 0.9465550
v 0.9730604 1.5390500 0.2047190
vn 0.0000000 0.6254372 0.7802745
vt 0.1744920 0.9271630
v 1.2960020 1.5390500 0.2047191
vn 0.0000000 0.6254377 0.7802741
vt 0.2214520 0.9271720
v 1.2960020 1.5390500 0.2047191
vn 0.0000000 0.6254377 0.7802741
vt 0.2214300 0.9854110
v 0.9730605 1.4504470 0.3163940
vn 0.0000000 0.9020481 0.4316355
vt 0.1744920 0.9659731
v 1.2960020 1.4504470 0.3163939
vn 0.0000000 0.9020478 0.4316361
vt 0.2214310 0.9659821
v 0.9730604 1.5390500 0.2047190
vn 0.0000000 0.6254372 0.7802745
vt 0.1744920 0.9854010
v 0.9730604 1.4190730 0.4554531
vn 0.0000000 0.9999969 -0.0024924
vt 0.1744920 0.9465660
v 1.2960020 1.4190720 0.4554531
vn 0.0000000 0.9999969 -0.0024926
vt 0.2214300 0.9465750
v 0.9730605 1.4511400 0.5943540
vn 0.0000000 0.8998843 -0.4361286
vt 0.1744920 0.9271821
v 1.2960020 1.4511400 0.5943540
vn 0.0000000 0.8998839 -0.4361295
vt 0.2214300 0.9271920
v 0.9730605 1.5402991 0.7055858
vn 0.0000000 0.6215375 -0.7833844
vt 0.1744920 0.9078250
v 1.2960020 1.5402991 0.7055858
vn 0.0000000 0.6215386 -0.7833835
vt 0.2214300 0.9078350
v 0.9730605 1.5402991 0.7055858
vn 0.0000000 0.6215375 -0.7833844
vt 0.1744920 0.9853300
v 1.2960020 1.6688900 0.7671176
vn 0.0000000 0.2200891 -0.9754798
vt 0.2214440 0.9659110
v 1.2960020 1.5402991 0.7055858
vn 0.0000000 0.6215386 -0.7833835
vt 0.2214440 0.9853400
v 0.9730605 1.6688910 0.7671173
vn 0.0000000 0.2200889 -0.9754798
vt 0.1744920 0.9659020
v 1.1849710 1.8313650 0.5260737
vn -0.1539247 0.7845901 0.6006045
vt 0.5453420 0.8699740
v 0.9851242 1.8225909 0.4863187
vn -0.2775517 0.9136901 0.2968763
vt 0.5480750 0.8796774
v 1.1849710 1.7745759 0.5673335
vn -0.3147474 0.2396178 0.9184320
vt 0.5453420 0.8796770
v 1.1849710 1.8313650 0.5260737
vn -0.1539247 0.7845901 0.6006045
vt 0.5453420 0.8893830
v 1.1849710 1.8530570 0.4593139
vn -0.1539240 0.9877732 -0.0247268
vt 0.5453420 0.8796780
v 1.1849710 1.8313650 0.3925540
vn -0.3147474 0.7336970 -0.6021818
vt 0.5453420 0.8699760
v 1.1849710 1.7745759 0.3512940
vn -0.1765514 0.4090471 -0.8952709
vt 0.5453421 0.8893721
v 0.9851242 1.8225909 0.4863187
vn -0.2775517 0.9136901 0.2968763
vt 0.5480750 0.8990790
v 1.1849710 1.8313650 0.3925540
vn -0.3147474 0.7336970 -0.6021818
vt 0.5453420 0.8990790
v 0.9851242 1.7394780 0.3512940
vn -0.1568739 0.1759111 -0.9718261
vt 0.5480750 0.8893720
v 1.1849710 1.7043800 0.3512940
vn -0.0594794 -0.3386761 -0.9390212
vt 0.5453420 0.8796670
v 1.1849710 1.6475910 0.3925540
vn -0.0594791 -0.7884070 -0.6122718
vt 0.5453420 0.8699640
v 0.9851242 1.7394780 0.3512940
vn -0.1568739 0.1759111 -0.9718261
vt 0.5480750 0.8796670
v 0.9851242 1.6367450 0.4259339
vn -0.1101800 -0.9452661 -0.3071359
vt 0.5480750 0.8699640
v 1.1849710 1.6258990 0.4593138
vn -0.0594784 -0.9977189 0.0319254
vt 0.5453420 0.8796680
v 0.9851242 1.6367450 0.4259339
vn -0.1101800 -0.9452661 -0.3071359
vt 0.5480750 0.8893730
v 1.1849710 1.6475910 0.3925540
vn -0.0594791 -0.7884070 -0.6122718
vt 0.5453420 0.8893730
v 1.1849710 1.6475910 0.5260737
vn -0.0594788 -0.8259377 0.5606151
vt 0.5453420 0.8699650
v 0.9851242 1.6367450 0.4259339
vn -0.1101800 -0.9452661 -0.3071359
vt 0.5480750 0.8796680
v 0.9851242 1.6759850 0.5467036
vn -0.1568734 -0.4289102 0.8896217
vt 0.5480750 0.8699650
v 1.1849710 1.7043800 0.5673335
vn -0.1765511 -0.1953017 0.9647212
vt 0.5453421 0.8893821
v 0.9851242 1.6759850 0.5467036
vn -0.1568734 -0.4289102 0.8896217
vt 0.5480750 0.8990900
v 1.1849710 1.6475910 0.5260737
vn -0.0594788 -0.8259377 0.5606151
vt 0.5453420 0.8990900
v 0.9851242 1.6759850 0.5467036
vn -0.1568734 -0.4289102 0.8896217
vt 0.5480750 0.8893820
v 1.1849710 1.7745759 0.5673335
vn 1.0000000 0.0000000 0.0000000
vt 0.9596010 0.6235090
v 1.1849710 1.8530570 0.4593139
vn 1.0000000 0.0000000 0.0000000
vt 0.9788010 0.6374810
v 1.1849710 1.8313650 0.5260737
vn 1.0000000 0.0000000 0.0000000
vt 0.9669310 0.6336170
v 1.1849710 1.8313650 0.3925540
vn 1.0000000 0.0000000 0.0000000
vt 0.9906811 0.6336231
v 1.1849710 1.7043800 0.5673335
vn 1.0000000 0.0000000 0.0000000
vt 0.9596010 0.6110180
v 1.1849710 1.6475910 0.5260737
vn 1.0000000 0.0000000 0.0000000
vt 0.9669310 0.6009180
v 1.1849710 1.7043800 0.3512940
vn 1.0000000 0.0000000 0.0000000
vt 0.9980300 0.6110280
v 1.1849710 1.7745759 0.3512940
vn 1.0000000 0.0000000 0.0000000
vt 0.9980300 0.6235190
v 1.1849710 1.6475910 0.3925540
vn 1.0000000 0.0000000 0.0000000
vt 0.9906811 0.6009230
v 1.1849710 1.6258990 0.4593138
vn 1.0000000 0.0000000 0.0000000
vt 0.9788010 0.5970620
v 0.9513830 1.8349431 0.8685451
vn -1.0000000 0.0000000 0.0000000
vt 0.1799020 0.5838830
v 0.9513830 2.0050609 0.7860978
vn -1.0000000 0.0000000 0.0000000
vt 0.1684340 0.6071140
v 0.9513830 1.6438349 0.0407637
vn -1.0000000 0.0000000 0.0000000
vt 0.0652770 0.5577360
v 0.9513829 2.1225591 0.6380039
vn -1.0000000 0.0000000 0.0000000
vt 0.1478620 0.6231440
v 0.9513829 2.1641650 0.4535952
vn -1.0000000 0.0000000 0.0000000
vt 0.1222940 0.6288130
v 0.9513830 2.1216400 0.2693965
vn -1.0000000 0.0000000 0.0000000
vt 0.0968140 0.6230080
v 0.9513830 2.0034051 0.1218905
vn -1.0000000 0.0000000 0.0000000
vt 0.0764560 0.6068690
v 0.9513830 1.8328780 0.0402923
vn -1.0000000 0.0000000 0.0000000
vt 0.0652120 0.5835770
v 0.9513829 1.4737170 0.1232110
vn -1.0000000 0.0000000 0.0000000
vt 0.0766380 0.5344650
v 0.9513830 1.3562191 0.2713049
vn -1.0000000 0.0000000 0.0000000
vt 0.0970780 0.5183890
v 0.9513830 1.3146120 0.4557135
vn -1.0000000 0.0000000 0.0000000
vt 0.1225870 0.5126980
v 0.9513829 1.3571380 0.6399122
vn -1.0000000 0.0000000 0.0000000
vt 0.1481270 0.5185250
v 0.9513829 1.4753730 0.7874186
vn -1.0000000 0.0000000 0.0000000
vt 0.1686180 0.5347110
v 0.9513830 1.6459000 0.8690165
vn -1.0000000 0.0000000 0.0000000
vt 0.1799670 0.5580420

g group_163_106652632060672
f 1/1/1 2/2/2 3/3/3 
f 2/2/2 1/1/1 4/4/4 
f 5/5/5 6/6/6 7/7/7 
f 6/6/6 5/5/5 8/8/8 
f 7/7/7 9/9/9 5/5/5 
f 9/9/9 7/7/7 10/10/10 
f 11/11/11 10/10/10 12/12/12 
f 10/10/10 11/11/11 9/9/9 
f 13/13/13 12/12/12 14/14/14 
f 12/12/12 13/13/13 11/11/11 
f 15/15/15 16/16/16 17/17/17 
f 16/16/16 15/15/15 18/18/18 
f 19/19/19 15/15/15 20/20/20 
f 15/15/15 19/19/19 18/18/18 
f 19/19/19 21/21/21 22/22/22 
f 21/21/21 19/19/19 20/20/20 
f 23/23/23 24/24/24 25/25/25 
f 24/24/24 23/23/23 26/26/26 
f 27/27/27 24/24/24 26/26/26 
f 24/24/24 27/27/27 28/28/28 
f 29/29/29 27/27/27 30/30/30 
f 27/27/27 29/29/29 28/28/28 
f 31/31/31 30/30/30 32/32/32 
f 30/30/30 31/31/31 29/29/29 
f 33/33/33 34/34/34 35/35/35 
f 34/34/34 33/33/33 36/36/36 
f 4/4/4 36/36/36 2/2/2 
f 36/36/36 4/4/4 34/34/34 
f 37/37/37 38/38/38 39/39/39 
f 37/37/37 40/40/40 38/38/38 
f 37/37/37 41/41/41 40/40/40 
f 37/37/37 42/42/42 41/41/41 
f 37/37/37 43/43/43 42/42/42 
f 44/44/44 45/45/45 46/46/46 
f 45/45/45 44/44/44 47/47/47 
f 48/48/48 46/46/46 45/45/45 
f 46/46/46 48/48/48 49/49/49 
f 50/50/50 49/49/49 48/48/48 
f 49/49/49 50/50/50 51/51/51 
f 50/50/50 52/52/52 51/51/51 
f 52/52/52 50/50/50 53/53/53 
f 54/54/54 52/52/52 53/53/53 
f 52/52/52 54/54/54 55/55/55 
f 54/54/54 56/56/56 55/55/55 
f 56/56/56 54/54/54 57/57/57 
f 58/58/58 56/56/56 57/57/57 
f 56/56/56 58/58/58 59/59/59 
f 60/60/60 59/59/59 58/58/58 
f 59/59/59 60/60/60 61/61/61 
f 60/60/60 62/62/62 61/61/61 
f 62/62/62 60/60/60 63/63/63 
f 64/64/64 62/62/62 63/63/63 
f 62/62/62 64/64/64 65/65/65 
f 64/64/64 66/66/66 65/65/65 
f 66/66/66 64/64/64 67/67/67 
f 67/67/67 68/68/68 66/66/66 
f 68/68/68 67/67/67 69/69/69 
f 70/70/70 68/68/68 69/69/69 
f 68/68/68 70/70/70 71/71/71 
f 47/47/47 71/71/71 70/70/70 
f 71/71/71 47/47/47 44/44/44 
f 72/72/72 73/73/73 74/74/74 
f 73/73/73 72/72/72 75/75/75 
f 76/76/76 77/77/77 78/78/78 
f 77/77/77 76/76/76 79/79/79 
f 80/80/80 77/77/77 81/81/81 
f 77/77/77 80/80/80 78/78/78 
f 81/81/81 82/82/82 80/80/80 
f 82/82/82 81/81/81 83/83/83 
f 84/84/84 82/82/82 83/83/83 
f 82/82/82 84/84/84 85/85/85 
f 86/86/86 87/87/87 88/88/88 
f 87/87/87 86/86/86 89/89/89 
f 90/90/90 88/88/88 87/87/87 
f 88/88/88 90/90/90 91/91/91 
f 92/92/92 91/91/91 90/90/90 
f 91/91/91 92/92/92 93/93/93 
f 94/94/94 95/95/95 96/96/96 
f 95/95/95 94/94/94 97/97/97 
f 98/98/98 96/96/96 95/95/95 
f 96/96/96 98/98/98 99/99/99 
f 99/99/99 100/100/100 101/101/101 
f 100/100/100 99/99/99 98/98/98 
f 102/102/102 101/101/101 100/100/100 
f 101/101/101 102/102/102 103/103/103 
f 104/104/104 105/105/105 106/106/106 
f 105/105/105 104/104/104 107/107/107 
f 105/105/105 72/72/72 74/74/74 
f 72/72/72 105/105/105 107/107/107 
f 108/108/108 109/109/109 110/110/110 
f 109/109/109 111/111/111 112/112/112 
f 113/113/113 109/109/109 112/112/112 
f 114/114/114 115/115/115 116/116/116 
f 115/115/115 114/114/114 117/117/117 
f 118/118/118 117/117/117 114/114/114 
f 119/119/119 120/120/120 118/118/118 
f 120/120/120 119/119/119 121/121/121 
f 122/122/122 123/123/123 124/124/124 
f 125/125/125 126/126/126 122/122/122 
f 126/126/126 125/125/125 127/127/127 
f 128/128/128 129/129/129 130/130/130 
f 109/109/109 128/128/128 110/110/110 
f 128/128/128 109/109/109 131/131/131 
f 132/132/132 133/133/133 134/134/134 
f 132/132/132 135/135/135 133/133/133 
f 136/136/136 135/135/135 132/132/132 
f 137/137/137 135/135/135 136/136/136 
f 135/135/135 138/138/138 139/139/139 
f 135/135/135 140/140/140 138/138/138 
f 137/137/137 140/140/140 135/135/135 
f 137/137/137 141/141/141 140/140/140 
f 142/142/142 143/143/143 144/144/144 
f 143/143/143 145/145/145 144/144/144 
f 145/145/145 146/146/146 144/144/144 
f 146/146/146 147/147/147 144/144/144 
f 147/147/147 148/148/148 144/144/144 
f 148/148/148 149/149/149 144/144/144 
f 150/150/150 151/151/151 144/144/144 
f 151/151/151 152/152/152 144/144/144 
f 152/152/152 153/153/153 144/144/144 
f 153/153/153 154/154/154 144/144/144 
f 154/154/154 155/155/155 144/144/144 
f 155/155/155 142/142/142 144/144/144 
